<?xml version="1.0" encoding="UTF-8"?>
<svg width="300px" height="97px" viewBox="0 0 300 97" version="1.1" xmlns="http://www.w3.org/2000/svg" xmlns:xlink="http://www.w3.org/1999/xlink">
    <!-- Generator: Sketch 64 (93537) - https://sketch.com -->
    <title>logo-gray-300</title>
    <desc>Created with Sketch.</desc>
    <g id="Logo" stroke="none" stroke-width="1" fill="none" fill-rule="evenodd">
        <g id="logo-gray-300" fill="#5E5E5E" fill-rule="nonzero">
            <g id="Tree" transform="translate(0.000000, 0.663717)">
                <path d="M8.29646018,89.7549353 C8.99625783,89.7549353 9.56957862,90.2964471 9.62025283,90.983301 L9.62389381,91.082369 L9.62389381,94.758339 C9.62389381,95.4914604 9.02958153,96.0857726 8.29646018,96.0857726 C7.59666253,96.0857726 7.02334173,95.5442608 6.97266752,94.8574069 L6.96902655,94.758339 L6.96902655,91.082369 C6.96902655,90.3492476 7.56333883,89.7549353 8.29646018,89.7549353 Z" id="Path"></path>
                <path d="M20.2433628,89.7549353 C20.9431605,89.7549353 21.5164813,90.2964471 21.5671555,90.983301 L21.5707965,91.082369 L21.5707965,94.758339 C21.5707965,95.4914604 20.9764842,96.0857726 20.2433628,96.0857726 C19.5435652,96.0857726 18.9702444,95.5442608 18.9195702,94.8574069 L18.9159292,94.758339 L18.9159292,91.082369 C18.9159292,90.3492476 19.5102415,89.7549353 20.2433628,89.7549353 Z" id="Path"></path>
                <path d="M14.2699115,0 C22.1883088,0 28.4142197,5.83753976 28.5379461,14.8803206 L28.539823,15.1553227 L28.539823,69.3016072 C28.539823,75.8336863 24.8888611,80.6125875 19.2381599,82.4776948 C18.5419806,82.7074803 17.7913379,82.3293934 17.5615524,81.6332142 C17.331767,80.9370349 17.7098538,80.1863922 18.4060331,79.9566067 C22.9181458,78.4673094 25.7881396,74.7842643 25.8825527,69.5681513 L25.8849558,69.3016072 L25.8849558,15.1553227 C25.8849558,7.4538266 20.831818,2.65486726 14.2699115,2.65486726 C7.78091509,2.65486726 2.76734547,7.34777552 2.65673393,14.8996837 L2.65486726,15.1553227 L2.65486726,69.3016072 C2.65486726,74.7799803 5.68354434,78.6160693 10.4373028,80.052528 C11.1390846,80.2645877 11.5360828,81.0054025 11.3240231,81.7071843 C11.1119634,82.408966 10.3711486,82.8059642 9.66936684,82.5939045 C3.90679589,80.8526097 0.108132444,76.1195392 0.00227098019,69.5828517 L0,69.3016072 L0,15.1553227 C0,5.95606546 6.27153038,0 14.2699115,0 Z" id="Path"></path>
                <path d="M14.2699115,18.8155523 C14.9697092,18.8155523 15.5430299,19.3570641 15.5937042,20.043918 L15.5973451,20.1429859 L15.5973451,94.6800229 C15.5973451,95.4131443 15.0030329,96.0074566 14.2699115,96.0074566 C13.5701139,96.0074566 12.9967931,95.4659448 12.9461189,94.7790909 L12.9424779,94.6800229 L12.9424779,20.1429859 C12.9424779,19.4098646 13.5367902,18.8155523 14.2699115,18.8155523 Z" id="Path"></path>
                <path d="M7.19556264,26.5793817 C7.65304236,26.0567991 8.42980208,25.9792962 8.97932051,26.3831768 L9.06870912,26.4549537 L14.5826642,31.2819851 C15.1342792,31.7648803 15.1899875,32.6035166 14.7070922,33.1551315 C14.2496125,33.6777141 13.4728528,33.7552171 12.9233344,33.3513365 L12.8339458,33.2795596 L7.31999068,28.4525282 C6.76837571,27.9696329 6.71266737,27.1309967 7.19556264,26.5793817 Z" id="Path"></path>
                <path d="M7.19556264,48.4820366 C7.65304236,47.959454 8.42980208,47.881951 8.97932051,48.2858316 L9.06870912,48.3576086 L14.5826642,53.1846399 C15.1342792,53.6675352 15.1899875,54.5061714 14.7070922,55.0577864 C14.2496125,55.580369 13.4728528,55.657872 12.9233344,55.2539914 L12.8339458,55.1822145 L7.31999068,50.3551831 C6.76837571,49.8722878 6.71266737,49.0336516 7.19556264,48.4820366 Z" id="Path"></path>
                <path d="M13.8327308,37.8625676 C14.2902105,37.339985 15.0669702,37.262482 15.6164886,37.6663626 L15.7058773,37.7381395 L21.2198323,42.5651709 C21.7714473,43.0480662 21.8271556,43.8867024 21.3442604,44.4383174 C20.8867807,44.9609 20.1100209,45.038403 19.5605025,44.6345223 L19.4711139,44.5627454 L13.9571588,39.7357141 C13.4055438,39.2528188 13.3498355,38.4141825 13.8327308,37.8625676 Z" id="Path" transform="translate(17.588496, 41.150442) scale(-1, 1) translate(-17.588496, -41.150442) "></path>
                <path d="M13.8327308,60.4289393 C14.2902105,59.9063566 15.0669702,59.8288537 15.6164886,60.2327343 L15.7058773,60.3045112 L21.2198323,65.1315426 C21.7714473,65.6144378 21.8271556,66.4530741 21.3442604,67.0046891 C20.8867807,67.5272717 20.1100209,67.6047746 19.5605025,67.200894 L19.4711139,67.1291171 L13.9571588,62.3020857 C13.4055438,61.8191905 13.3498355,60.9805542 13.8327308,60.4289393 Z" id="Path" transform="translate(17.588496, 63.716814) scale(-1, 1) translate(-17.588496, -63.716814) "></path>
            </g>
            <path d="M82.0733249,95.5752212 L82.0733249,55.619469 L100.657396,1.0619469 L86.3211125,1.0619469 L75.4361568,38.6283186 L75.17067,38.6283186 L64.2857143,1.0619469 L49.9494311,1.0619469 L68.5335019,55.619469 L68.5335019,95.5752212 L82.0733249,95.5752212 Z M138.811631,96.3716814 C141.554994,96.3716814 144.276233,95.8849558 146.975348,94.9115044 C149.674463,93.9380531 152.130215,92.4778761 154.342604,90.5309735 C156.466498,88.6725664 158.192162,86.3274336 159.519595,83.4955752 C160.847029,80.6637168 161.510746,77.2566372 161.510746,73.2743363 L161.510746,73.2743363 L161.510746,23.3628319 C161.510746,19.5575221 160.847029,16.1946903 159.519595,13.2743363 C158.192162,10.3539823 156.466498,7.92035398 154.342604,5.97345133 C152.130215,4.11504425 149.674463,2.69911504 146.975348,1.72566372 C144.276233,0.752212389 141.554994,0.265486726 138.811631,0.265486726 C136.068268,0.265486726 133.347029,0.752212389 130.647914,1.72566372 C127.948799,2.69911504 125.537295,4.11504425 123.413401,5.97345133 C121.201011,7.92035398 119.4311,10.3539823 118.103666,13.2743363 C116.776233,16.1946903 116.112516,19.5575221 116.112516,23.3628319 L116.112516,23.3628319 L116.112516,73.2743363 C116.112516,77.2566372 116.776233,80.6637168 118.103666,83.4955752 C119.4311,86.3274336 121.201011,88.6725664 123.413401,90.5309735 C125.537295,92.4778761 127.948799,93.9380531 130.647914,94.9115044 C133.347029,95.8849558 136.068268,96.3716814 138.811631,96.3716814 Z M138.811631,82.8318584 C136.333755,82.8318584 134.187737,82.0575221 132.373578,80.5088496 C130.559418,78.960177 129.652339,76.5486726 129.652339,73.2743363 L129.652339,73.2743363 L129.652339,23.3628319 C129.652339,20.0884956 130.559418,17.6769912 132.373578,16.1283186 C134.187737,14.579646 136.333755,13.8053097 138.811631,13.8053097 C141.289507,13.8053097 143.435525,14.579646 145.249684,16.1283186 C147.063843,17.6769912 147.970923,20.0884956 147.970923,23.3628319 L147.970923,23.3628319 L147.970923,73.2743363 C147.970923,76.5486726 147.063843,78.960177 145.249684,80.5088496 C143.435525,82.0575221 141.289507,82.8318584 138.811631,82.8318584 Z M204.841972,96.3716814 C207.585335,96.3716814 210.306574,95.8849558 213.005689,94.9115044 C215.704804,93.9380531 218.160556,92.4778761 220.372946,90.5309735 C222.496839,88.6725664 224.222503,86.3274336 225.549937,83.4955752 C226.87737,80.6637168 227.541087,77.2566372 227.541087,73.2743363 L227.541087,73.2743363 L227.541087,23.3628319 C227.541087,19.5575221 226.87737,16.1946903 225.549937,13.2743363 C224.222503,10.3539823 222.496839,7.92035398 220.372946,5.97345133 C218.160556,4.11504425 215.704804,2.69911504 213.005689,1.72566372 C210.306574,0.752212389 207.585335,0.265486726 204.841972,0.265486726 C202.098609,0.265486726 199.37737,0.752212389 196.678255,1.72566372 C193.97914,2.69911504 191.567636,4.11504425 189.443742,5.97345133 C187.231353,7.92035398 185.461441,10.3539823 184.134008,13.2743363 C182.806574,16.1946903 182.142857,19.5575221 182.142857,23.3628319 L182.142857,23.3628319 L182.142857,73.2743363 C182.142857,77.2566372 182.806574,80.6637168 184.134008,83.4955752 C185.461441,86.3274336 187.231353,88.6725664 189.443742,90.5309735 C191.567636,92.4778761 193.97914,93.9380531 196.678255,94.9115044 C199.37737,95.8849558 202.098609,96.3716814 204.841972,96.3716814 Z M204.841972,82.8318584 C202.364096,82.8318584 200.218078,82.0575221 198.403919,80.5088496 C196.58976,78.960177 195.68268,76.5486726 195.68268,73.2743363 L195.68268,73.2743363 L195.68268,23.3628319 C195.68268,20.0884956 196.58976,17.6769912 198.403919,16.1283186 C200.218078,14.579646 202.364096,13.8053097 204.841972,13.8053097 C207.319848,13.8053097 209.465866,14.579646 211.280025,16.1283186 C213.094185,17.6769912 214.001264,20.0884956 214.001264,23.3628319 L214.001264,23.3628319 L214.001264,73.2743363 C214.001264,76.5486726 213.094185,78.960177 211.280025,80.5088496 C209.465866,82.0575221 207.319848,82.8318584 204.841972,82.8318584 Z M262.509482,95.5752212 L262.509482,67.300885 L269.810367,53.6283186 L285.208597,95.5752212 L299.54488,95.5752212 L277.642225,38.8938053 L296.093552,1.0619469 L282.553729,1.0619469 L262.774968,44.2035398 L262.509482,44.2035398 L262.509482,1.0619469 L248.969659,1.0619469 L248.969659,95.5752212 L262.509482,95.5752212 Z" id="YOOK"></path>
        </g>
    </g>
</svg>