<?xml version="1.0" encoding="UTF-8"?>
<svg width="150px" height="49px" viewBox="0 0 150 49" version="1.1" xmlns="http://www.w3.org/2000/svg" xmlns:xlink="http://www.w3.org/1999/xlink">
    <!-- Generator: Sketch 64 (93537) - https://sketch.com -->
    <title>logo-gray-150</title>
    <desc>Created with Sketch.</desc>
    <g id="Logo" stroke="none" stroke-width="1" fill="none" fill-rule="evenodd">
        <g id="logo-gray-150" fill="#5E5E5E" fill-rule="nonzero">
            <g id="Tree" transform="translate(0.000000, 0.331858)">
                <path d="M4.14823009,44.8774677 C4.49812891,44.8774677 4.78478931,45.1482236 4.81012641,45.4916505 L4.8119469,45.5411845 L4.8119469,47.3791695 C4.8119469,47.7457302 4.51479076,48.0428863 4.14823009,48.0428863 C3.79833126,48.0428863 3.51167087,47.7721304 3.48633376,47.4287035 L3.48451327,47.3791695 L3.48451327,45.5411845 C3.48451327,45.1746238 3.78166941,44.8774677 4.14823009,44.8774677 Z" id="Path"></path>
                <path d="M10.1216814,44.8774677 C10.4715802,44.8774677 10.7582406,45.1482236 10.7835777,45.4916505 L10.7853982,45.5411845 L10.7853982,47.3791695 C10.7853982,47.7457302 10.4882421,48.0428863 10.1216814,48.0428863 C9.77178259,48.0428863 9.48512219,47.7721304 9.45978509,47.4287035 L9.4579646,47.3791695 L9.4579646,45.5411845 C9.4579646,45.1746238 9.75512074,44.8774677 10.1216814,44.8774677 Z" id="Path"></path>
                <path d="M7.13495575,0 C11.0941544,0 14.2071099,2.91876988 14.268973,7.4401603 L14.2699115,7.57766133 L14.2699115,34.6508036 C14.2699115,37.9168431 12.4444305,40.3062937 9.61907993,41.2388474 C9.27099031,41.3537401 8.89566895,41.1646967 8.78077621,40.8166071 C8.66588348,40.4685175 8.85492691,40.0931961 9.20301654,39.9783034 C11.4590729,39.2336547 12.8940698,37.3921322 12.9412763,34.7840756 L12.9424779,34.6508036 L12.9424779,7.57766133 C12.9424779,3.7269133 10.415909,1.32743363 7.13495575,1.32743363 C3.89045755,1.32743363 1.38367274,3.67388776 1.32836696,7.44984187 L1.32743363,7.57766133 L1.32743363,34.6508036 C1.32743363,37.3899901 2.84177217,39.3080347 5.21865142,40.026264 C5.56954229,40.1322939 5.76804138,40.5027013 5.66201154,40.8535921 C5.55598171,41.204483 5.18557429,41.4029821 4.83468342,41.2969523 C1.95339795,40.4263048 0.0540662219,38.0597696 0.0011354901,34.7914259 L0,34.6508036 L0,7.57766133 C0,2.97803273 3.13576519,0 7.13495575,0 Z" id="Path"></path>
                <path d="M7.13495575,9.40777614 C7.48485458,9.40777614 7.77151497,9.67853204 7.79685208,10.021959 L7.79867257,10.071493 L7.79867257,47.3400115 C7.79867257,47.7065721 7.50151643,48.0037283 7.13495575,48.0037283 C6.78505693,48.0037283 6.49839653,47.7329724 6.47305943,47.3895454 L6.47123894,47.3400115 L6.47123894,10.071493 C6.47123894,9.70493228 6.76839508,9.40777614 7.13495575,9.40777614 Z" id="Path"></path>
                <path d="M3.59778132,13.2896909 C3.82652118,13.0283996 4.21490104,12.9896481 4.48966025,13.1915884 L4.53435456,13.2274768 L7.29133209,15.6409925 C7.56713958,15.8824402 7.59499375,16.3017583 7.35354612,16.5775658 C7.12480625,16.8388571 6.7364264,16.8776086 6.46166718,16.6756683 L6.41697288,16.6397798 L3.65999534,14.2262641 C3.38418785,13.9848165 3.35633369,13.5654984 3.59778132,13.2896909 Z" id="Path"></path>
                <path d="M3.59778132,24.2410183 C3.82652118,23.979727 4.21490104,23.9409755 4.48966025,24.1429158 L4.53435456,24.1788043 L7.29133209,26.59232 C7.56713958,26.8337676 7.59499375,27.2530857 7.35354612,27.5288932 C7.12480625,27.7901845 6.7364264,27.828936 6.46166718,27.6269957 L6.41697288,27.5911072 L3.65999534,25.1775915 C3.38418785,24.9361439 3.35633369,24.5168258 3.59778132,24.2410183 Z" id="Path"></path>
                <path d="M6.91636539,18.9312838 C7.14510525,18.6699925 7.53348511,18.631241 7.80824432,18.8331813 L7.85293863,18.8690698 L10.6099162,21.2825855 C10.8857237,21.5240331 10.9135778,21.9433512 10.6721302,22.2191587 C10.4433903,22.48045 10.0550105,22.5192015 9.78025125,22.3172612 L9.73555695,22.2813727 L6.97857941,19.867857 C6.70277192,19.6264094 6.67491776,19.2070913 6.91636539,18.9312838 Z" id="Path" transform="translate(8.794248, 20.575221) scale(-1, 1) translate(-8.794248, -20.575221) "></path>
                <path d="M6.91636539,30.2144696 C7.14510525,29.9531783 7.53348511,29.9144268 7.80824432,30.1163671 L7.85293863,30.1522556 L10.6099162,32.5657713 C10.8857237,32.8072189 10.9135778,33.226537 10.6721302,33.5023445 C10.4433903,33.7636358 10.0550105,33.8023873 9.78025125,33.600447 L9.73555695,33.5645586 L6.97857941,31.1510429 C6.70277192,30.9095952 6.67491776,30.4902771 6.91636539,30.2144696 Z" id="Path" transform="translate(8.794248, 31.858407) scale(-1, 1) translate(-8.794248, -31.858407) "></path>
            </g>
            <path d="M41.0366625,47.7876106 L41.0366625,27.8097345 L50.3286979,0.530973451 L43.1605563,0.530973451 L37.7180784,19.3141593 L37.585335,19.3141593 L32.1428571,0.530973451 L24.9747155,0.530973451 L34.2667509,27.8097345 L34.2667509,47.7876106 L41.0366625,47.7876106 Z M69.4058154,48.1858407 C70.7774968,48.1858407 72.1381163,47.9424779 73.4876738,47.4557522 C74.8372314,46.9690265 76.0651075,46.2389381 77.1713021,45.2654867 C78.2332491,44.3362832 79.0960809,43.1637168 79.7597977,41.7477876 C80.4235145,40.3318584 80.7553729,38.6283186 80.7553729,36.6371681 L80.7553729,36.6371681 L80.7553729,11.6814159 C80.7553729,9.77876106 80.4235145,8.09734513 79.7597977,6.63716814 C79.0960809,5.17699115 78.2332491,3.96017699 77.1713021,2.98672566 C76.0651075,2.05752212 74.8372314,1.34955752 73.4876738,0.862831858 C72.1381163,0.376106195 70.7774968,0.132743363 69.4058154,0.132743363 C68.034134,0.132743363 66.6735145,0.376106195 65.323957,0.862831858 C63.9743995,1.34955752 62.7686473,2.05752212 61.7067004,2.98672566 C60.6005057,3.96017699 59.7155499,5.17699115 59.0518331,6.63716814 C58.3881163,8.09734513 58.0562579,9.77876106 58.0562579,11.6814159 L58.0562579,11.6814159 L58.0562579,36.6371681 C58.0562579,38.6283186 58.3881163,40.3318584 59.0518331,41.7477876 C59.7155499,43.1637168 60.6005057,44.3362832 61.7067004,45.2654867 C62.7686473,46.2389381 63.9743995,46.9690265 65.323957,47.4557522 C66.6735145,47.9424779 68.034134,48.1858407 69.4058154,48.1858407 Z M69.4058154,41.4159292 C68.1668774,41.4159292 67.0938685,41.0287611 66.1867889,40.2544248 C65.2797092,39.4800885 64.8261694,38.2743363 64.8261694,36.6371681 L64.8261694,36.6371681 L64.8261694,11.6814159 C64.8261694,10.0442478 65.2797092,8.83849558 66.1867889,8.06415929 C67.0938685,7.28982301 68.1668774,6.90265487 69.4058154,6.90265487 C70.6447535,6.90265487 71.7177623,7.28982301 72.624842,8.06415929 C73.5319216,8.83849558 73.9854614,10.0442478 73.9854614,11.6814159 L73.9854614,11.6814159 L73.9854614,36.6371681 C73.9854614,38.2743363 73.5319216,39.4800885 72.624842,40.2544248 C71.7177623,41.0287611 70.6447535,41.4159292 69.4058154,41.4159292 Z M102.420986,48.1858407 C103.792668,48.1858407 105.153287,47.9424779 106.502845,47.4557522 C107.852402,46.9690265 109.080278,46.2389381 110.186473,45.2654867 C111.24842,44.3362832 112.111252,43.1637168 112.774968,41.7477876 C113.438685,40.3318584 113.770544,38.6283186 113.770544,36.6371681 L113.770544,36.6371681 L113.770544,11.6814159 C113.770544,9.77876106 113.438685,8.09734513 112.774968,6.63716814 C112.111252,5.17699115 111.24842,3.96017699 110.186473,2.98672566 C109.080278,2.05752212 107.852402,1.34955752 106.502845,0.862831858 C105.153287,0.376106195 103.792668,0.132743363 102.420986,0.132743363 C101.049305,0.132743363 99.6886852,0.376106195 98.3391277,0.862831858 C96.9895702,1.34955752 95.783818,2.05752212 94.721871,2.98672566 C93.6156764,3.96017699 92.7307206,5.17699115 92.0670038,6.63716814 C91.403287,8.09734513 91.0714286,9.77876106 91.0714286,11.6814159 L91.0714286,11.6814159 L91.0714286,36.6371681 C91.0714286,38.6283186 91.403287,40.3318584 92.0670038,41.7477876 C92.7307206,43.1637168 93.6156764,44.3362832 94.721871,45.2654867 C95.783818,46.2389381 96.9895702,46.9690265 98.3391277,47.4557522 C99.6886852,47.9424779 101.049305,48.1858407 102.420986,48.1858407 Z M102.420986,41.4159292 C101.182048,41.4159292 100.109039,41.0287611 99.2019595,40.2544248 C98.2948799,39.4800885 97.8413401,38.2743363 97.8413401,36.6371681 L97.8413401,36.6371681 L97.8413401,11.6814159 C97.8413401,10.0442478 98.2948799,8.83849558 99.2019595,8.06415929 C100.109039,7.28982301 101.182048,6.90265487 102.420986,6.90265487 C103.659924,6.90265487 104.732933,7.28982301 105.640013,8.06415929 C106.547092,8.83849558 107.000632,10.0442478 107.000632,11.6814159 L107.000632,11.6814159 L107.000632,36.6371681 C107.000632,38.2743363 106.547092,39.4800885 105.640013,40.2544248 C104.732933,41.0287611 103.659924,41.4159292 102.420986,41.4159292 Z M131.254741,47.7876106 L131.254741,33.6504425 L134.905183,26.8141593 L142.604298,47.7876106 L149.77244,47.7876106 L138.821113,19.4469027 L148.046776,0.530973451 L141.276865,0.530973451 L131.387484,22.1017699 L131.254741,22.1017699 L131.254741,0.530973451 L124.484829,0.530973451 L124.484829,47.7876106 L131.254741,47.7876106 Z" id="YOOK"></path>
        </g>
    </g>
</svg>