<?xml version="1.0" encoding="UTF-8"?>
<svg width="75px" height="25px" viewBox="0 0 75 25" version="1.1" xmlns="http://www.w3.org/2000/svg" xmlns:xlink="http://www.w3.org/1999/xlink">
    <!-- Generator: Sketch 64 (93537) - https://sketch.com -->
    <title>logo-white-75</title>
    <desc>Created with Sketch.</desc>
    <g id="Logo" stroke="none" stroke-width="1" fill="none" fill-rule="evenodd">
        <g id="logo-white-75" fill="#FFFFFF" fill-rule="nonzero">
            <g id="Tree" transform="translate(0.000000, 0.165929)">
                <path d="M2.07411504,22.4387338 C2.24906446,22.4387338 2.39239466,22.5741118 2.40506321,22.7458253 L2.40597345,22.7705922 L2.40597345,23.6895848 C2.40597345,23.8728651 2.25739538,24.0214432 2.07411504,24.0214432 C1.89916563,24.0214432 1.75583543,23.8860652 1.74316688,23.7143517 L1.74225664,23.6895848 L1.74225664,22.7705922 C1.74225664,22.5873119 1.89083471,22.4387338 2.07411504,22.4387338 Z" id="Path"></path>
                <path d="M5.06084071,22.4387338 C5.23579012,22.4387338 5.37912032,22.5741118 5.39178887,22.7458253 L5.39269912,22.7705922 L5.39269912,23.6895848 C5.39269912,23.8728651 5.24412105,24.0214432 5.06084071,24.0214432 C4.8858913,24.0214432 4.7425611,23.8860652 4.72989254,23.7143517 L4.7289823,23.6895848 L4.7289823,22.7705922 C4.7289823,22.5873119 4.87756037,22.4387338 5.06084071,22.4387338 Z" id="Path"></path>
                <path d="M3.56747788,0 C5.5470772,0 7.10355493,1.45938494 7.13448652,3.72008015 L7.13495575,3.78883066 L7.13495575,17.3254018 C7.13495575,18.9584216 6.22221527,20.1531469 4.80953997,20.6194237 C4.63549515,20.6768701 4.44783447,20.5823484 4.39038811,20.4083035 C4.33294174,20.2342587 4.42746346,20.046598 4.60150827,19.9891517 C5.72953645,19.6168273 6.44703489,18.6960661 6.47063816,17.3920378 L6.47123894,17.3254018 L6.47123894,3.78883066 C6.47123894,1.86345665 5.2079545,0.663716814 3.56747788,0.663716814 C1.94522877,0.663716814 0.691836369,1.83694388 0.664183482,3.72492093 L0.663716814,3.78883066 L0.663716814,17.3254018 C0.663716814,18.6949951 1.42088608,19.6540173 2.60932571,20.013132 C2.78477115,20.0661469 2.88402069,20.2513506 2.83100577,20.4267961 C2.77799085,20.6022415 2.59278714,20.701491 2.41734171,20.6484761 C0.976698973,20.2131524 0.027033111,19.0298848 0.000567745048,17.3957129 L0,17.3254018 L0,3.78883066 C0,1.48901636 1.56788259,0 3.56747788,0 Z" id="Path"></path>
                <path d="M3.56747788,4.70388807 C3.74242729,4.70388807 3.88575749,4.83926602 3.89842604,5.01097949 L3.89933628,5.03574648 L3.89933628,23.6700057 C3.89933628,23.8532861 3.75075821,24.0018641 3.56747788,24.0018641 C3.39252846,24.0018641 3.24919827,23.8664862 3.23652971,23.6947727 L3.23561947,23.6700057 L3.23561947,5.03574648 C3.23561947,4.85246614 3.38419754,4.70388807 3.56747788,4.70388807 Z" id="Path"></path>
                <path d="M1.79889066,6.64484543 C1.91326059,6.51419978 2.10745052,6.49482404 2.24483013,6.59579419 L2.26717728,6.61373842 L3.64566605,7.82049627 C3.78356979,7.94122008 3.79749687,8.15087914 3.67677306,8.28878289 C3.56240313,8.41942854 3.3682132,8.43880428 3.23083359,8.33783413 L3.20848644,8.3198899 L1.82999767,7.11313205 C1.69209393,6.99240824 1.67816684,6.78274918 1.79889066,6.64484543 Z" id="Path"></path>
                <path d="M1.79889066,12.1205091 C1.91326059,11.9898635 2.10745052,11.9704878 2.24483013,12.0714579 L2.26717728,12.0894021 L3.64566605,13.29616 C3.78356979,13.4168838 3.79749687,13.6265429 3.67677306,13.7644466 C3.56240313,13.8950923 3.3682132,13.914468 3.23083359,13.8134978 L3.20848644,13.7955536 L1.82999767,12.5887958 C1.69209393,12.468072 1.67816684,12.2584129 1.79889066,12.1205091 Z" id="Path"></path>
                <path d="M3.45818269,9.46564189 C3.57255263,9.33499624 3.76674255,9.3156205 3.90412216,9.41659065 L3.92646931,9.43453488 L5.30495808,10.6412927 C5.44286183,10.7620165 5.45678891,10.9716756 5.33606509,11.1095793 C5.22169516,11.240225 5.02750523,11.2596007 4.89012563,11.1586306 L4.86777847,11.1406864 L3.48928971,9.93392851 C3.35138596,9.8132047 3.33745888,9.60354564 3.45818269,9.46564189 Z" id="Path" transform="translate(4.397124, 10.287611) scale(-1, 1) translate(-4.397124, -10.287611) "></path>
                <path d="M3.45818269,15.1072348 C3.57255263,14.9765892 3.76674255,14.9572134 3.90412216,15.0581836 L3.92646931,15.0761278 L5.30495808,16.2828856 C5.44286183,16.4036095 5.45678891,16.6132685 5.33606509,16.7511723 C5.22169516,16.8818179 5.02750523,16.9011937 4.89012563,16.8002235 L4.86777847,16.7822793 L3.48928971,15.5755214 C3.35138596,15.4547976 3.33745888,15.2451386 3.45818269,15.1072348 Z" id="Path" transform="translate(4.397124, 15.929204) scale(-1, 1) translate(-4.397124, -15.929204) "></path>
            </g>
            <path d="M20.5183312,23.8938053 L20.5183312,13.9048673 L25.1643489,0.265486726 L21.5802781,0.265486726 L18.8590392,9.65707965 L18.7926675,9.65707965 L16.0714286,0.265486726 L12.4873578,0.265486726 L17.1333755,13.9048673 L17.1333755,23.8938053 L20.5183312,23.8938053 Z M34.7029077,24.0929204 C35.3887484,24.0929204 36.0690582,23.9712389 36.7438369,23.7278761 C37.4186157,23.4845133 38.0325537,23.119469 38.5856511,22.6327434 C39.1166245,22.1681416 39.5480405,21.5818584 39.8798989,20.8738938 C40.2117573,20.1659292 40.3776865,19.3141593 40.3776865,18.3185841 L40.3776865,18.3185841 L40.3776865,5.84070796 C40.3776865,4.88938053 40.2117573,4.04867257 39.8798989,3.31858407 C39.5480405,2.58849558 39.1166245,1.9800885 38.5856511,1.49336283 C38.0325537,1.02876106 37.4186157,0.674778761 36.7438369,0.431415929 C36.0690582,0.188053097 35.3887484,0.0663716814 34.7029077,0.0663716814 C34.017067,0.0663716814 33.3367573,0.188053097 32.6619785,0.431415929 C31.9871997,0.674778761 31.3843236,1.02876106 30.8533502,1.49336283 C30.3002528,1.9800885 29.857775,2.58849558 29.5259166,3.31858407 C29.1940582,4.04867257 29.028129,4.88938053 29.028129,5.84070796 L29.028129,5.84070796 L29.028129,18.3185841 C29.028129,19.3141593 29.1940582,20.1659292 29.5259166,20.8738938 C29.857775,21.5818584 30.3002528,22.1681416 30.8533502,22.6327434 C31.3843236,23.119469 31.9871997,23.4845133 32.6619785,23.7278761 C33.3367573,23.9712389 34.017067,24.0929204 34.7029077,24.0929204 Z M34.7029077,20.7079646 C34.0834387,20.7079646 33.5469343,20.5143805 33.0933944,20.1272124 C32.6398546,19.7400442 32.4130847,19.1371681 32.4130847,18.3185841 L32.4130847,18.3185841 L32.4130847,5.84070796 C32.4130847,5.02212389 32.6398546,4.41924779 33.0933944,4.03207965 C33.5469343,3.6449115 34.0834387,3.45132743 34.7029077,3.45132743 C35.3223767,3.45132743 35.8588812,3.6449115 36.312421,4.03207965 C36.7659608,4.41924779 36.9927307,5.02212389 36.9927307,5.84070796 L36.9927307,5.84070796 L36.9927307,18.3185841 C36.9927307,19.1371681 36.7659608,19.7400442 36.312421,20.1272124 C35.8588812,20.5143805 35.3223767,20.7079646 34.7029077,20.7079646 Z M51.210493,24.0929204 C51.8963338,24.0929204 52.5766435,23.9712389 53.2514223,23.7278761 C53.926201,23.4845133 54.5401391,23.119469 55.0932364,22.6327434 C55.6242099,22.1681416 56.0556258,21.5818584 56.3874842,20.8738938 C56.7193426,20.1659292 56.8852718,19.3141593 56.8852718,18.3185841 L56.8852718,18.3185841 L56.8852718,5.84070796 C56.8852718,4.88938053 56.7193426,4.04867257 56.3874842,3.31858407 C56.0556258,2.58849558 55.6242099,1.9800885 55.0932364,1.49336283 C54.5401391,1.02876106 53.926201,0.674778761 53.2514223,0.431415929 C52.5766435,0.188053097 51.8963338,0.0663716814 51.210493,0.0663716814 C50.5246523,0.0663716814 49.8443426,0.188053097 49.1695638,0.431415929 C48.4947851,0.674778761 47.891909,1.02876106 47.3609355,1.49336283 C46.8078382,1.9800885 46.3653603,2.58849558 46.0335019,3.31858407 C45.7016435,4.04867257 45.5357143,4.88938053 45.5357143,5.84070796 L45.5357143,5.84070796 L45.5357143,18.3185841 C45.5357143,19.3141593 45.7016435,20.1659292 46.0335019,20.8738938 C46.3653603,21.5818584 46.8078382,22.1681416 47.3609355,22.6327434 C47.891909,23.119469 48.4947851,23.4845133 49.1695638,23.7278761 C49.8443426,23.9712389 50.5246523,24.0929204 51.210493,24.0929204 Z M51.210493,20.7079646 C50.591024,20.7079646 50.0545196,20.5143805 49.6009798,20.1272124 C49.1474399,19.7400442 48.92067,19.1371681 48.92067,18.3185841 L48.92067,18.3185841 L48.92067,5.84070796 C48.92067,5.02212389 49.1474399,4.41924779 49.6009798,4.03207965 C50.0545196,3.6449115 50.591024,3.45132743 51.210493,3.45132743 C51.8299621,3.45132743 52.3664665,3.6449115 52.8200063,4.03207965 C53.2735461,4.41924779 53.5003161,5.02212389 53.5003161,5.84070796 L53.5003161,5.84070796 L53.5003161,18.3185841 C53.5003161,19.1371681 53.2735461,19.7400442 52.8200063,20.1272124 C52.3664665,20.5143805 51.8299621,20.7079646 51.210493,20.7079646 Z M65.6273704,23.8938053 L65.6273704,16.8252212 L67.4525917,13.4070796 L71.3021492,23.8938053 L74.88622,23.8938053 L69.4105563,9.72345133 L74.0233881,0.265486726 L70.6384324,0.265486726 L65.6937421,11.050885 L65.6273704,11.050885 L65.6273704,0.265486726 L62.2424147,0.265486726 L62.2424147,23.8938053 L65.6273704,23.8938053 Z" id="YOOK"></path>
        </g>
    </g>
</svg>