<?xml version="1.0" encoding="UTF-8"?>
<svg width="150px" height="140px" viewBox="0 0 150 140" version="1.1" xmlns="http://www.w3.org/2000/svg" xmlns:xlink="http://www.w3.org/1999/xlink">
    <!-- Generator: Sketch 64 (93537) - https://sketch.com -->
    <title>forest-150</title>
    <desc>Created with Sketch.</desc>
    <g id="Graphics" stroke="none" stroke-width="1" fill="none" fill-rule="evenodd">
        <g id="Forest">
            <g id="wald">
                <path d="M80.4878049,57.1741355 C80.4878049,54.2842065 76.2852047,49.0367944 77.8934655,46.8725103 L77.8934655,12.9937559 C77.8934655,5.84770754 72.056202,0 64.9229164,0 C57.7884831,0 51.9512195,5.84770754 51.9512195,12.9937559 L51.9512195,36.4765856 C53.5594806,38.6420197 51.9512195,46.3941138 51.9512195,49.2817429 L51.9512195,75.3658537 C54.3194152,72.1769268 63.2675903,70.0666921 67.516108,70.0666921 C71.7680695,70.0666921 75.5252698,72.1723269 77.8934655,75.3658537 L80.4878049,57.1741355 Z" id="Path" fill="#1A9172" fill-rule="nonzero"></path>
                <path d="M64.7566642,67.3170732 C63.3421489,67.3170732 62.195122,66.1520114 62.195122,64.7164064 L62.195122,23.0896228 C62.195122,21.6528667 63.3421489,20.4878049 64.7566642,20.4878049 C66.1700463,20.4878049 67.3170732,21.6528667 67.3170732,23.0896228 L67.3170732,64.7164064 C67.3170732,66.1520114 66.1700463,67.3170732 64.7566642,67.3170732 Z" id="Path" fill="#BE7C6D" fill-rule="nonzero"></path>
                <path d="M64.7569472,67.3170732 C64.1009117,67.3170732 63.4460088,67.0666416 62.9463339,66.5669114 C61.944718,65.5663178 61.944718,63.9470107 62.9463339,62.946417 L68.0677187,57.8244658 C69.0682017,56.822739 70.6861964,56.822739 71.6878126,57.8244658 C72.6894283,58.8261925 72.6894283,60.4443665 71.6878126,61.4460933 L66.5664279,66.5669114 C66.067886,67.0666416 65.4118501,67.3170732 64.7569472,67.3170732 Z" id="Path" fill="#BE7C6D" fill-rule="nonzero"></path>
                <path d="M64.7569472,43.902439 C64.1009117,43.902439 63.4460088,43.6508813 62.9463339,43.152298 C61.944718,42.150599 61.944718,40.5324697 62.9463339,39.5307707 L68.0677187,34.4089611 C69.0682017,33.4083951 70.6861964,33.4083951 71.6878126,34.4089611 C72.6894283,35.4106601 72.6894283,37.0287894 71.6878126,38.0304884 L66.5664279,43.152298 C66.067886,43.6508813 65.4118501,43.902439 64.7569472,43.902439 Z" id="Path" fill="#BE7C6D" fill-rule="nonzero"></path>
                <path d="M64.7563808,54.1463415 C64.1003452,54.1463415 63.4454423,53.8959098 62.9457675,53.3961797 L57.8243827,48.2742285 C56.8227667,47.2736348 56.8227667,45.6543277 57.8243827,44.6537341 C58.8259987,43.6520073 60.4439937,43.6520073 61.4456096,44.6537341 L66.5658614,49.7756853 C67.5674771,50.776279 67.5674771,52.394453 66.5658614,53.3961797 C66.0673195,53.8959098 65.4112837,54.1463415 64.7563808,54.1463415 Z" id="Path" fill="#BE7C6D" fill-rule="nonzero"></path>
                <path d="M25.9761765,10.2439024 C18.9331818,10.2439024 13.1707317,16.09161 13.1707317,23.2388082 L13.1707317,57.0232632 C13.1707317,57.1118125 13.1967957,57.1946119 13.1967957,57.2854613 C14.0183842,57.1164127 14.86377,83.0119249 15.7318207,83.0119249 C22.6875568,83.0119249 28.3706813,70.7886635 28.5112012,77.8139625 C28.5191338,77.8116624 28.5293328,69.754821 28.536132,69.7525208 L38.7804878,85.6097561 L38.7804878,23.2388082 C38.7804878,16.09161 33.0180377,10.2439024 25.9761765,10.2439024 Z" id="Path" fill="#3D6F44" fill-rule="nonzero"></path>
                <path d="M124.023824,10.2439024 C116.981962,10.2439024 111.219512,16.0613187 111.219512,23.1714944 L111.219512,31.1911774 L113.780601,87.8025898 C113.788534,87.804878 113.798732,87.8025898 113.806665,87.804878 C113.947185,80.8171142 127.312443,69.7073933 134.268179,69.7073933 C135.13623,69.7073933 135.981616,56.8736123 136.803204,57.0417852 C136.803204,56.9514064 136.829268,56.8690359 136.829268,56.7809453 L136.829268,23.1714944 C136.829268,16.0613187 131.066818,10.2439024 124.023824,10.2439024 Z" id="Path" fill="#61B872" fill-rule="nonzero"></path>
                <path d="M95.4876916,103.346557 L95.4876916,43.6516401 C93.3390966,41.9968024 90.6930157,40.9756098 87.8044248,40.9756098 C80.7625633,40.9756098 75.0001133,46.8221671 75.0001133,53.9693653 L75.0001133,69.6564015 C76.5877617,71.820686 72.4390244,74.4691169 72.4390244,77.3590459 L72.4390244,103.346557 C72.4390244,105.338343 77.077315,107.20593 76.2806576,108.895267 C78.3442609,113.274436 82.7241762,116.341463 87.8044248,116.341463 C91.9996243,116.341463 95.7109369,114.239278 98.0487805,111.050352 C96.4611318,108.884917 95.4876916,106.236487 95.4876916,103.346557 L95.4876916,103.346557 Z" id="Path" fill="#3D6F44" fill-rule="nonzero"></path>
                <path d="M15.7317075,116.341463 C8.68953432,116.341463 2.92682927,110.543143 2.92682927,103.456308 L2.92682927,69.9571856 C2.92682927,62.8714904 8.68953432,57.0731707 15.7317075,57.0731707 C22.7750138,57.0731707 28.5365854,62.8714904 28.5365854,69.9571856 L28.5365854,103.456308 C28.5365854,110.543143 22.7750138,116.341463 15.7317075,116.341463 Z" id="Path" fill="#61B872" fill-rule="nonzero"></path>
                <path d="M15.731849,98.0487805 C15.0769099,98.0487805 14.4208377,97.7972224 13.9211352,97.2986392 C12.9205972,96.2969402 12.9205972,94.6788109 13.9211352,93.6771119 L19.0428032,88.5553023 C20.0444746,87.5547366 21.6625591,87.5547366 22.6642304,88.5553023 C23.6647687,89.5570014 23.6647687,91.1751306 22.6642304,92.1768296 L17.5425624,97.2986392 C17.0428599,97.7972224 16.3879208,98.0487805 15.731849,98.0487805 Z" id="Path" fill="#BE7C6D" fill-rule="nonzero"></path>
                <path d="M15.7308576,108.292683 C15.0759548,108.292683 14.4199189,108.042251 13.920244,107.542521 L8.79999224,102.42057 C7.79837657,101.419976 7.79837657,99.8018023 8.79999224,98.8000756 C9.80047522,97.7983488 11.4196032,97.7983488 12.4200862,98.8000756 L17.541471,103.922027 C18.5430869,104.92262 18.5430869,106.540794 17.541471,107.542521 C17.0417961,108.042251 16.3868932,108.292683 15.7308576,108.292683 Z" id="Path" fill="#BE7C6D" fill-rule="nonzero"></path>
                <path d="M41.3423133,98.0487805 C40.6862775,98.0487805 40.0313746,97.7972224 39.5316998,97.2986392 C38.5300838,96.2969402 38.5300838,94.6788109 39.5316998,93.6771119 L44.6530844,88.5553023 C45.6535674,87.5547366 47.2726953,87.5547366 48.2731783,88.5553023 C49.2747942,89.5570014 49.2747942,91.1751306 48.2731783,92.1768296 L43.1529266,97.2986392 C42.6532518,97.7972224 41.9972159,98.0487805 41.3423133,98.0487805 Z" id="Path" fill="#BE7C6D" fill-rule="nonzero"></path>
                <path d="M41.3413219,108.292683 C40.6852498,108.292683 40.0303107,108.042251 39.5306082,107.542521 L34.4089403,102.42057 C33.408402,101.419976 33.408402,99.8018023 34.4089403,98.8000756 C35.4106116,97.7983488 37.0286961,97.7983488 38.0303674,98.8000756 L43.1520353,103.922027 C44.1525736,104.92262 44.1525736,106.540794 43.1520353,107.542521 C42.6523328,108.042251 41.9962607,108.292683 41.3413219,108.292683 Z" id="Path" fill="#BE7C6D" fill-rule="nonzero"></path>
                <path d="M41.3423133,74.6341463 C40.6862775,74.6341463 40.0313746,74.3837147 39.5316998,73.8839843 C38.5300838,72.8822578 38.5300838,71.2640836 39.5316998,70.2623571 L44.6530844,65.141539 C45.6535674,64.1398122 47.2726953,64.1398122 48.2731783,65.141539 C49.2747942,66.1421323 49.2747942,67.7614397 48.2731783,68.7620331 L43.1529266,73.8839843 C42.6532518,74.3837147 41.9972159,74.6341463 41.3423133,74.6341463 Z" id="Path" fill="#BE7C6D" fill-rule="nonzero"></path>
                <path d="M41.3413219,85.6097561 C40.6852498,85.6097561 40.0303107,85.3593034 39.5306082,84.8595318 L34.4089403,79.7382888 C33.408402,78.7364792 33.408402,77.1181707 34.4089403,76.1163612 C35.4106116,75.1156845 37.0286961,75.1156845 38.0303674,76.1163612 L43.1520353,81.2387374 C44.1525736,82.2394137 44.1525736,83.8588555 43.1520353,84.8595318 C42.6523328,85.3593034 41.9962607,85.6097561 41.3413219,85.6097561 Z" id="Path" fill="#BE7C6D" fill-rule="nonzero"></path>
                <path d="M64.7566641,116.341463 C57.7136695,116.341463 51.9512195,110.496563 51.9512195,103.352796 L51.9512195,77.3777614 C51.9512195,70.2339946 57.7136695,64.3902439 64.7566641,64.3902439 C71.7985256,64.3902439 77.5609756,70.2339946 77.5609756,77.3777614 L77.5609756,103.352796 C77.5609756,110.496563 71.7985256,116.341463 64.7566641,116.341463 Z" id="Path" fill="#61B872" fill-rule="nonzero"></path>
                <path d="M64.7569472,106.097561 C64.1009117,106.097561 63.4460088,105.847129 62.9463339,105.347399 C61.944718,104.346805 61.944718,102.727498 62.9463339,101.726905 L68.0677187,96.6049536 C69.0682017,95.6032269 70.6861964,95.6032269 71.6878126,96.6049536 C72.6894283,97.6066803 72.6894283,99.2248542 71.6878126,100.225448 L66.5664279,105.347399 C66.067886,105.847129 65.4118501,106.097561 64.7569472,106.097561 Z" id="Path" fill="#BE7C6D" fill-rule="nonzero"></path>
                <path d="M15.7317073,128.04878 C14.318638,128.04878 13.1707317,126.883951 13.1707317,125.45005 L13.1707317,80.1597056 C13.1707317,78.7246547 14.318638,77.5609756 15.7317073,77.5609756 C17.1459098,77.5609756 18.2926829,78.7246547 18.2926829,80.1597056 L18.2926829,125.45005 C18.2926829,126.883951 17.1459098,128.04878 15.7317073,128.04878 L15.7317073,128.04878 Z" id="Path" fill="#BE7C6D" fill-rule="nonzero"></path>
                <path d="M134.268293,116.341463 C141.310466,116.341463 147.073171,110.543143 147.073171,103.456308 L147.073171,69.9571856 C147.073171,62.8714904 141.310466,57.0731707 134.268293,57.0731707 C127.224986,57.0731707 121.463415,62.8714904 121.463415,69.9571856 L121.463415,103.456308 C121.463415,110.543143 127.224986,116.341463 134.268293,116.341463 L134.268293,116.341463 Z" id="Path" fill="#1A9172" fill-rule="nonzero"></path>
                <path d="M134.268151,98.0487805 C133.612079,98.0487805 132.95714,97.7972224 132.457438,97.2986392 L127.33577,92.1768296 C126.335231,91.1751306 126.335231,89.5570014 127.33577,88.5553023 C128.337441,87.5547366 129.955525,87.5547366 130.957197,88.5553023 L136.078865,93.6771119 C137.079403,94.6788109 137.079403,96.2969402 136.078865,97.2986392 C135.579162,97.7972224 134.92309,98.0487805 134.268151,98.0487805 Z" id="Path" fill="#BE7C6D" fill-rule="nonzero"></path>
                <path d="M134.269142,108.292683 C133.613107,108.292683 132.958204,108.042251 132.458529,107.542521 C131.456913,106.540794 131.456913,104.92262 132.458529,103.922027 L137.579914,98.8000756 C138.580397,97.7983488 140.199525,97.7983488 141.200008,98.8000756 C142.201623,99.8018023 142.201623,101.419976 141.200008,102.42057 L136.079756,107.542521 C135.580081,108.042251 134.924045,108.292683 134.269142,108.292683 Z" id="Path" fill="#BE7C6D" fill-rule="nonzero"></path>
                <path d="M108.65797,116.341463 C115.700964,116.341463 121.463415,110.504121 121.463415,103.369592 L121.463415,43.7035779 C121.463415,36.5690491 115.700964,30.7317073 108.65797,30.7317073 C101.616109,30.7317073 95.8536585,36.5690491 95.8536585,43.7035779 L95.8536585,103.369592 C95.8536585,110.504121 101.616109,116.341463 108.65797,116.341463 L108.65797,116.341463 Z" id="Path" fill="#23A24D" fill-rule="nonzero"></path>
                <g id="Group" transform="translate(79.756098, 51.219512)" fill="#BE7C6D" fill-rule="nonzero">
                    <path d="M28.6120425,88.4458151 C27.1863568,88.4458151 26.0282014,87.2818881 26.0282014,85.8490973 L26.0282014,2.75872529 C26.0282014,1.32593449 27.1863568,0.162007538 28.6120425,0.162007538 C30.0388718,0.162007538 31.1958843,1.32593449 31.1958843,2.75872529 L31.1958843,85.8490973 C31.1958843,87.2818881 30.0388718,88.4458151 28.6120425,88.4458151 Z" id="Path"></path>
                    <path d="M28.6120425,46.9006292 C27.9512195,46.9006292 27.289253,46.6455532 26.785061,46.1399976 L21.6185213,40.9465621 C20.6078505,39.9308548 20.6078505,38.2900968 21.6185213,37.2743895 C22.6280488,36.2598315 24.261814,36.2598315 25.2713415,37.2743895 L30.4390244,42.467825 C31.4496951,43.4835323 31.4496951,45.1242903 30.4390244,46.1399976 C29.9348324,46.6455532 29.2740091,46.9006292 28.6120425,46.9006292 Z" id="Path"></path>
                    <path d="M28.6120425,57.286351 C27.9512195,57.286351 27.289253,57.0324242 26.785061,56.5257197 C25.7755335,55.5100124 25.7755335,53.8692544 26.785061,52.854696 L31.9527439,47.6612605 C32.9634146,46.6455532 34.5960366,46.6455532 35.6067073,47.6612605 C36.6162348,48.6769678 36.6162348,50.3177258 35.6067073,51.3322842 L30.4390244,56.5257197 C29.9348324,57.0324242 29.2740091,57.286351 28.6120425,57.286351 Z" id="Path"></path>
                    <path d="M28.6120425,23.5313184 C27.9512195,23.5313184 27.289253,23.2773916 26.785061,22.7706867 L21.6185213,17.5772512 C20.6078505,16.5626932 20.6078505,14.920786 21.6185213,13.9062279 C22.6280488,12.8905206 24.261814,12.8905206 25.2713415,13.9062279 L30.4390244,19.0985145 C31.4496951,20.1142215 31.4496951,21.7549797 30.4390244,22.7706867 C29.9348324,23.2773916 29.2740091,23.5313184 28.6120425,23.5313184 Z" id="Path"></path>
                    <path d="M28.6120425,33.9170405 C27.9512195,33.9170405 27.289253,33.6631134 26.785061,33.1564088 C25.7755335,32.1418507 25.7755335,30.4999436 26.785061,29.4853855 L31.9527439,24.29195 C32.9634146,23.2773916 34.5960366,23.2773916 35.6067073,24.29195 C36.6162348,25.307657 36.6162348,26.9484152 35.6067073,27.9641222 L30.4390244,33.1564088 C29.9348324,33.6631134 29.2740091,33.9170405 28.6120425,33.9170405 Z" id="Path"></path>
                    <path d="M7.94245434,75.4622263 C6.51676829,75.4622263 5.35861288,74.2994483 5.35861288,72.8655086 L5.35861288,2.75872529 C5.35861288,1.32593449 6.51676829,0.162007538 7.94245434,0.162007538 C9.36928361,0.162007538 10.5262958,1.32593449 10.5262958,2.75872529 L10.5262958,72.8655086 C10.5262958,74.2994483 9.36928361,75.4622263 7.94245434,75.4622263 Z" id="Path"></path>
                    <path d="M7.94245434,46.9006292 C7.28163102,46.9006292 6.61966478,46.6455532 6.116616,46.1399976 L0.948933073,40.9465621 C-0.0617379512,39.9308548 -0.0617379512,38.2900968 0.948933073,37.2743895 C1.95846029,36.2598315 3.59222576,36.2598315 4.60175298,37.2743895 L9.7694359,42.467825 C10.7801066,43.4835323 10.7801066,45.1242903 9.7694359,46.1399976 C9.2652439,46.6455532 8.60442088,46.9006292 7.94245434,46.9006292 Z" id="Path"></path>
                    <path d="M7.94245434,23.5313184 C7.28163102,23.5313184 6.61966478,23.2773916 6.116616,22.7706867 L0.948933073,17.5772512 C-0.0617379512,16.5626932 -0.0617379512,14.920786 0.948933073,13.9062279 C1.95846029,12.8905206 3.59222576,12.8905206 4.60175298,13.9062279 L9.7694359,19.0985145 C10.7801066,20.1142215 10.7801066,21.7549797 9.7694359,22.7706867 C9.2652439,23.2773916 8.60442088,23.5313184 7.94245434,23.5313184 Z" id="Path"></path>
                    <path d="M54.449314,76.5767469 C53.0224847,76.5767469 51.8654725,75.4128197 51.8654725,73.9800292 L51.8654725,28.7247539 C51.8654725,27.2908142 53.0224847,26.1280361 54.449314,26.1280361 C55.875,26.1280361 57.0331554,27.2908142 57.0331554,28.7247539 L57.0331554,73.9800292 C57.0331554,75.4128197 55.875,76.5767469 54.449314,76.5767469 L54.449314,76.5767469 Z" id="Path"></path>
                </g>
                <path d="M51.5852525,103.369592 L51.5852525,77.4281465 C51.5852525,74.5433402 52.558693,71.899604 54.1463415,69.739156 L54.1463415,43.7035779 C54.1463415,36.5690491 48.3838915,30.7317073 41.3420303,30.7317073 C34.2990357,30.7317073 28.5365854,36.5690491 28.5365854,43.7035779 L28.5365854,103.369592 C28.5365854,110.504121 34.2990357,116.341463 41.3420303,116.341463 C46.4222786,116.341463 50.8021939,113.279872 52.8657971,108.908467 C52.0691398,107.222123 51.5852525,105.357847 51.5852525,103.369592 L51.5852525,103.369592 Z" id="Path" fill="#23A24D" fill-rule="nonzero"></path>
                <path d="M41.3414637,133.902439 C39.9272612,133.902439 38.7804878,132.747361 38.7804878,131.325464 L38.7804878,54.5281943 C38.7804878,53.1062971 39.9272612,51.9512195 41.3414637,51.9512195 C42.7545328,51.9512195 43.902439,53.1062971 43.902439,54.5281943 L43.902439,131.325464 C43.902439,132.747361 42.7545328,133.902439 41.3414637,133.902439 Z" id="Path" fill="#BE7C6D" fill-rule="nonzero"></path>
                <path d="M64.7566642,133.170732 C63.3421489,133.170732 62.195122,132.016909 62.195122,130.594014 L62.195122,88.1864744 C62.195122,86.7647187 63.3421489,85.6097561 64.7566642,85.6097561 C66.1700463,85.6097561 67.3170732,86.7647187 67.3170732,88.1864744 L67.3170732,130.594014 C67.3170732,132.01919 66.1700463,133.170732 64.7566642,133.170732 L64.7566642,133.170732 Z" id="Path" fill="#BE7C6D" fill-rule="nonzero"></path>
                <path d="M115.875622,131.534913 C116.62884,131.534913 117.342841,131.758148 118.029158,132.073171 C120.396087,126.467354 124.488613,124.390244 129.146341,124.390244 C133.80407,124.390244 137.894289,126.467354 140.263525,132.073171 C140.949842,131.758148 141.663843,131.534913 142.417061,131.534913 C146.603019,131.534913 150,133.289068 150,139.756098 L108.292683,139.756098 C108.292683,133.289068 111.687357,131.534913 115.875622,131.534913 L115.875622,131.534913 Z" id="Path" fill="#61B872" fill-rule="nonzero"></path>
                <path d="M41.2414755,131.534913 C41.9946941,131.534913 42.7086946,131.758148 43.3950118,132.073171 C45.7619407,126.467354 49.8544668,124.390244 54.5121951,124.390244 C59.1699237,124.390244 63.2601428,126.467354 65.6293788,132.073171 C66.3156956,131.758148 67.0296962,131.534913 67.7829147,131.534913 C71.9688725,131.534913 75.3658537,133.289068 75.3658537,139.756098 L33.6585366,139.756098 C33.6585366,133.289068 37.053211,131.534913 41.2414755,131.534913 L41.2414755,131.534913 Z" id="Path" fill="#61B872" fill-rule="nonzero"></path>
                <path d="M37.3170732,132.20122 C36.2386042,131.745683 35.0132267,131.534913 33.691049,131.534913 C32.9473952,131.534913 32.2424614,131.758148 31.5648595,132.073171 C29.2257096,126.467354 25.18743,124.390244 20.5888479,124.390244 C15.9902656,124.390244 11.9519862,126.467354 9.61283607,132.073171 C8.9352344,131.758148 8.2303006,131.534913 7.48664684,131.534913 C3.35042829,131.534913 0,133.289068 0,139.756098 L33.4564505,139.756098 C33.4564505,135.358245 35.0234761,133.171218 37.3170732,132.20122 L37.3170732,132.20122 Z" id="Path" fill="#23A24D" fill-rule="nonzero"></path>
                <path d="M100.806036,131.534913 C100.062383,131.534913 99.3574488,131.758148 98.6809856,132.073171 C96.3441135,126.467354 92.3035561,124.390244 87.7038353,124.390244 C83.105253,124.390244 79.0669736,126.467354 76.7278235,132.073171 C76.0513606,131.758148 75.345288,131.534913 74.601634,131.534913 C73.2794562,131.534913 72.0540787,131.745683 70.9756098,132.20122 C73.2692069,133.171218 74.8362324,135.358245 74.8362324,139.756098 L108.292683,139.756098 C108.292683,133.289068 104.942255,131.534913 100.806036,131.534913 L100.806036,131.534913 Z" id="Path" fill="#3D6F44" fill-rule="nonzero"></path>
            </g>
        </g>
    </g>
</svg>