<?xml version="1.0" encoding="UTF-8"?>
<svg width="75px" height="70px" viewBox="0 0 75 70" version="1.1" xmlns="http://www.w3.org/2000/svg" xmlns:xlink="http://www.w3.org/1999/xlink">
    <!-- Generator: Sketch 64 (93537) - https://sketch.com -->
    <title>forest-75</title>
    <desc>Created with Sketch.</desc>
    <g id="Graphics" stroke="none" stroke-width="1" fill="none" fill-rule="evenodd">
        <g id="Forest">
            <g id="wald">
                <path d="M40.2439024,28.5870677 C40.2439024,27.1421032 38.1426024,24.5183972 38.9467327,23.4362551 L38.9467327,6.49687794 C38.9467327,2.92385377 36.028101,0 32.4614582,0 C28.8942415,0 25.9756098,2.92385377 25.9756098,6.49687794 L25.9756098,18.2382928 C26.7797403,19.3210099 25.9756098,23.1970569 25.9756098,24.6408714 L25.9756098,37.6829268 C27.1597076,36.0884634 31.6337952,35.033346 33.758054,35.033346 C35.8840347,35.033346 37.7626349,36.0861634 38.9467327,37.6829268 L40.2439024,28.5870677 Z" id="Path" fill="#1A9172" fill-rule="nonzero"></path>
                <path d="M32.3783321,33.6585366 C31.6710744,33.6585366 31.097561,33.0760057 31.097561,32.3582032 L31.097561,11.5448114 C31.097561,10.8264333 31.6710744,10.2439024 32.3783321,10.2439024 C33.0850231,10.2439024 33.6585366,10.8264333 33.6585366,11.5448114 L33.6585366,32.3582032 C33.6585366,33.0760057 33.0850231,33.6585366 32.3783321,33.6585366 Z" id="Path" fill="#BE7C6D" fill-rule="nonzero"></path>
                <path d="M32.3784736,33.6585366 C32.0504558,33.6585366 31.7230044,33.5333208 31.473167,33.2834557 C30.972359,32.7831589 30.972359,31.9735053 31.473167,31.4732085 L34.0338593,28.9122329 C34.5341008,28.4113695 35.3430982,28.4113695 35.8439063,28.9122329 C36.3447142,29.4130963 36.3447142,30.2221833 35.8439063,30.7230466 L33.2832139,33.2834557 C33.033943,33.5333208 32.7059251,33.6585366 32.3784736,33.6585366 Z" id="Path" fill="#BE7C6D" fill-rule="nonzero"></path>
                <path d="M32.3784736,21.9512195 C32.0504558,21.9512195 31.7230044,21.8254406 31.473167,21.576149 C30.972359,21.0752995 30.972359,20.2662349 31.473167,19.7653853 L34.0338593,17.2044805 C34.5341008,16.7041975 35.3430982,16.7041975 35.8439063,17.2044805 C36.3447142,17.7053301 36.3447142,18.5143947 35.8439063,19.0152442 L33.2832139,21.576149 C33.033943,21.8254406 32.7059251,21.9512195 32.3784736,21.9512195 Z" id="Path" fill="#BE7C6D" fill-rule="nonzero"></path>
                <path d="M32.3781904,27.0731707 C32.0501726,27.0731707 31.7227212,26.9479549 31.4728837,26.6980899 L28.9121914,24.1371142 C28.4113834,23.6368174 28.4113834,22.8271639 28.9121914,22.326867 C29.4129993,21.8260037 30.2219968,21.8260037 30.7228048,22.326867 L33.2829307,24.8878427 C33.7837385,25.3881395 33.7837385,26.1972265 33.2829307,26.6980899 C33.0336598,26.9479549 32.7056418,27.0731707 32.3781904,27.0731707 Z" id="Path" fill="#BE7C6D" fill-rule="nonzero"></path>
                <path d="M12.9880882,5.12195122 C9.46659089,5.12195122 6.58536585,8.04580499 6.58536585,11.6194041 L6.58536585,28.5116316 C6.58536585,28.5559062 6.59839783,28.5973059 6.59839783,28.6427306 C7.00919208,28.5582064 7.43188501,41.5059624 7.86591033,41.5059624 C11.3437784,41.5059624 14.1853406,35.3943318 14.2556006,38.9069813 C14.2595669,38.9058312 14.2646664,34.8774105 14.268066,34.8762604 L19.3902439,42.804878 L19.3902439,11.6194041 C19.3902439,8.04580499 16.5090189,5.12195122 12.9880882,5.12195122 Z" id="Path" fill="#3D6F44" fill-rule="nonzero"></path>
                <path d="M62.0119118,5.12195122 C58.4909811,5.12195122 55.6097561,8.03065937 55.6097561,11.5857472 L55.6097561,15.5955887 L56.8903004,43.9012949 C56.8942668,43.902439 56.8993662,43.9012949 56.9033326,43.902439 C56.9735925,40.4085571 63.6562216,34.8536966 67.1340897,34.8536966 C67.568115,34.8536966 67.9908079,28.4368062 68.4016022,28.5208926 C68.4016022,28.4757032 68.4146341,28.4345179 68.4146341,28.3904726 L68.4146341,11.5857472 C68.4146341,8.03065937 65.5334091,5.12195122 62.0119118,5.12195122 Z" id="Path" fill="#61B872" fill-rule="nonzero"></path>
                <path d="M47.7438458,51.6732787 L47.7438458,21.8258201 C46.6695483,20.9984012 45.3465079,20.4878049 43.9022124,20.4878049 C40.3812817,20.4878049 37.5000567,23.4110835 37.5000567,26.9846827 L37.5000567,34.8282008 C38.2938809,35.910343 36.2195122,37.2345584 36.2195122,38.6795229 L36.2195122,51.6732787 C36.2195122,52.6691716 38.5386575,53.6029648 38.1403288,54.4476337 C39.1721305,56.6372178 41.3620881,58.1707317 43.9022124,58.1707317 C45.9998121,58.1707317 47.8554684,57.1196392 49.0243902,55.5251758 C48.2305659,54.4424586 47.7438458,53.1182433 47.7438458,51.6732787 L47.7438458,51.6732787 Z" id="Path" fill="#3D6F44" fill-rule="nonzero"></path>
                <path d="M7.86585373,58.1707317 C4.34476716,58.1707317 1.46341463,55.2715717 1.46341463,51.728154 L1.46341463,34.9785928 C1.46341463,31.4357452 4.34476716,28.5365854 7.86585373,28.5365854 C11.3875069,28.5365854 14.2682927,31.4357452 14.2682927,34.9785928 L14.2682927,51.728154 C14.2682927,55.2715717 11.3875069,58.1707317 7.86585373,58.1707317 Z" id="Path" fill="#61B872" fill-rule="nonzero"></path>
                <path d="M7.86592448,49.0243902 C7.53845493,49.0243902 7.21041886,48.8986112 6.96056761,48.6493196 C6.4602986,48.1484701 6.4602986,47.3394055 6.96056761,46.8385559 L9.52140161,44.2776512 C10.0222373,43.7773683 10.8312795,43.7773683 11.3321152,44.2776512 C11.8323844,44.7785007 11.8323844,45.5875653 11.3321152,46.0884148 L8.77128121,48.6493196 C8.52142996,48.8986112 8.19396041,49.0243902 7.86592448,49.0243902 Z" id="Path" fill="#BE7C6D" fill-rule="nonzero"></path>
                <path d="M7.86542882,54.1463415 C7.53797738,54.1463415 7.20995944,54.0211257 6.96012201,53.7712606 L4.39999612,51.210285 C3.89918829,50.7099881 3.89918829,49.9009012 4.39999612,49.4000378 C4.90023761,48.8991744 5.7098016,48.8991744 6.2100431,49.4000378 L8.77073548,51.9610134 C9.27154346,52.4613102 9.27154346,53.2703972 8.77073548,53.7712606 C8.52089805,54.0211257 8.19344661,54.1463415 7.86542882,54.1463415 Z" id="Path" fill="#BE7C6D" fill-rule="nonzero"></path>
                <path d="M20.6711567,49.0243902 C20.3431387,49.0243902 20.0156873,48.8986112 19.7658499,48.6493196 C19.2650419,48.1484701 19.2650419,47.3394055 19.7658499,46.8385559 L22.3265422,44.2776512 C22.8267837,43.7773683 23.6363477,43.7773683 24.1365891,44.2776512 C24.6373971,44.7785007 24.6373971,45.5875653 24.1365891,46.0884148 L21.5764633,48.6493196 C21.3266259,48.8986112 20.998608,49.0243902 20.6711567,49.0243902 Z" id="Path" fill="#BE7C6D" fill-rule="nonzero"></path>
                <path d="M20.6706609,54.1463415 C20.3426249,54.1463415 20.0151553,54.0211257 19.7653041,53.7712606 L17.2044702,51.210285 C16.704201,50.7099881 16.704201,49.9009012 17.2044702,49.4000378 C17.7053058,48.8991744 18.514348,48.8991744 19.0151837,49.4000378 L21.5760177,51.9610134 C22.0762868,52.4613102 22.0762868,53.2703972 21.5760177,53.7712606 C21.3261664,54.0211257 20.9981303,54.1463415 20.6706609,54.1463415 Z" id="Path" fill="#BE7C6D" fill-rule="nonzero"></path>
                <path d="M20.6711567,37.3170732 C20.3431387,37.3170732 20.0156873,37.1918574 19.7658499,36.9419922 C19.2650419,36.4411289 19.2650419,35.6320418 19.7658499,35.1311786 L22.3265422,32.5707695 C22.8267837,32.0699061 23.6363477,32.0699061 24.1365891,32.5707695 C24.6373971,33.0710662 24.6373971,33.8807198 24.1365891,34.3810165 L21.5764633,36.9419922 C21.3266259,37.1918574 20.998608,37.3170732 20.6711567,37.3170732 Z" id="Path" fill="#BE7C6D" fill-rule="nonzero"></path>
                <path d="M20.6706609,42.804878 C20.3426249,42.804878 20.0151553,42.6796517 19.7653041,42.4297659 L17.2044702,39.8691444 C16.704201,39.3682396 16.704201,38.5590854 17.2044702,38.0581806 C17.7053058,37.5578422 18.514348,37.5578422 19.0151837,38.0581806 L21.5760177,40.6193687 C22.0762868,41.1197069 22.0762868,41.9294277 21.5760177,42.4297659 C21.3261664,42.6796517 20.9981303,42.804878 20.6706609,42.804878 Z" id="Path" fill="#BE7C6D" fill-rule="nonzero"></path>
                <path d="M32.3783321,58.1707317 C28.8568348,58.1707317 25.9756098,55.2482815 25.9756098,51.6763981 L25.9756098,38.6888807 C25.9756098,35.1169973 28.8568348,32.195122 32.3783321,32.195122 C35.8992628,32.195122 38.7804878,35.1169973 38.7804878,38.6888807 L38.7804878,51.6763981 C38.7804878,55.2482815 35.8992628,58.1707317 32.3783321,58.1707317 Z" id="Path" fill="#61B872" fill-rule="nonzero"></path>
                <path d="M32.3784736,53.0487805 C32.0504558,53.0487805 31.7230044,52.9235645 31.473167,52.6736995 C30.972359,52.1734027 30.972359,51.3637492 31.473167,50.8634523 L34.0338593,48.3024768 C34.5341008,47.8016134 35.3430982,47.8016134 35.8439063,48.3024768 C36.3447142,48.8033401 36.3447142,49.6124271 35.8439063,50.1127239 L33.2832139,52.6736995 C33.033943,52.9235645 32.7059251,53.0487805 32.3784736,53.0487805 Z" id="Path" fill="#BE7C6D" fill-rule="nonzero"></path>
                <path d="M7.86585366,64.0243902 C7.15931898,64.0243902 6.58536585,63.4419756 6.58536585,62.7250252 L6.58536585,40.0798528 C6.58536585,39.3623274 7.15931898,38.7804878 7.86585366,38.7804878 C8.57295489,38.7804878 9.14634146,39.3623274 9.14634146,40.0798528 L9.14634146,62.7250252 C9.14634146,63.4419756 8.57295489,64.0243902 7.86585366,64.0243902 L7.86585366,64.0243902 Z" id="Path" fill="#BE7C6D" fill-rule="nonzero"></path>
                <path d="M67.1341463,58.1707317 C70.6552328,58.1707317 73.5365854,55.2715717 73.5365854,51.728154 L73.5365854,34.9785928 C73.5365854,31.4357452 70.6552328,28.5365854 67.1341463,28.5365854 C63.6124931,28.5365854 60.7317073,31.4357452 60.7317073,34.9785928 L60.7317073,51.728154 C60.7317073,55.2715717 63.6124931,58.1707317 67.1341463,58.1707317 L67.1341463,58.1707317 Z" id="Path" fill="#1A9172" fill-rule="nonzero"></path>
                <path d="M67.1340755,49.0243902 C66.8060396,49.0243902 66.47857,48.8986112 66.2287188,48.6493196 L63.6678848,46.0884148 C63.1676156,45.5875653 63.1676156,44.7785007 63.6678848,44.2776512 C64.1687205,43.7773683 64.9777627,43.7773683 65.4785984,44.2776512 L68.0394324,46.8385559 C68.5397014,47.3394055 68.5397014,48.1484701 68.0394324,48.6493196 C67.7895811,48.8986112 67.4615451,49.0243902 67.1340755,49.0243902 Z" id="Path" fill="#BE7C6D" fill-rule="nonzero"></path>
                <path d="M67.1345712,54.1463415 C66.8065534,54.1463415 66.4791019,54.0211257 66.2292645,53.7712606 C65.7284565,53.2703972 65.7284565,52.4613102 66.2292645,51.9610134 L68.7899569,49.4000378 C69.2901984,48.8991744 70.0997624,48.8991744 70.6000039,49.4000378 C71.1008117,49.9009012 71.1008117,50.7099881 70.6000039,51.210285 L68.039878,53.7712606 C67.7900406,54.0211257 67.4620226,54.1463415 67.1345712,54.1463415 Z" id="Path" fill="#BE7C6D" fill-rule="nonzero"></path>
                <path d="M54.3289849,58.1707317 C57.8504822,58.1707317 60.7317073,55.2520606 60.7317073,51.6847961 L60.7317073,21.851789 C60.7317073,18.2845246 57.8504822,15.3658537 54.3289849,15.3658537 C50.8080543,15.3658537 47.9268293,18.2845246 47.9268293,21.851789 L47.9268293,51.6847961 C47.9268293,55.2520606 50.8080543,58.1707317 54.3289849,58.1707317 L54.3289849,58.1707317 Z" id="Path" fill="#23A24D" fill-rule="nonzero"></path>
                <g id="Group" transform="translate(39.878049, 25.609756)" fill="#BE7C6D" fill-rule="nonzero">
                    <path d="M14.3060213,44.2229075 C13.5931784,44.2229075 13.0141007,43.6409441 13.0141007,42.9245487 L13.0141007,1.37936264 C13.0141007,0.662967246 13.5931784,0.0810037691 14.3060213,0.0810037691 C15.0194359,0.0810037691 15.5979421,0.662967246 15.5979421,1.37936264 L15.5979421,42.9245487 C15.5979421,43.6409441 15.0194359,44.2229075 14.3060213,44.2229075 Z" id="Path"></path>
                    <path d="M14.3060213,23.4503146 C13.9756098,23.4503146 13.6446265,23.3227766 13.3925305,23.0699988 L10.8092606,20.473281 C10.3039253,19.9654274 10.3039253,19.1450484 10.8092606,18.6371948 C11.3140244,18.1299157 12.130907,18.1299157 12.6356707,18.6371948 L15.2195122,21.2339125 C15.7248476,21.7417662 15.7248476,22.5621451 15.2195122,23.0699988 C14.9674162,23.3227766 14.6370045,23.4503146 14.3060213,23.4503146 Z" id="Path"></path>
                    <path d="M14.3060213,28.6431755 C13.9756098,28.6431755 13.6446265,28.5162121 13.3925305,28.2628598 C12.8877667,27.7550062 12.8877667,26.9346272 13.3925305,26.427348 L15.976372,23.8306303 C16.4817073,23.3227766 17.2980183,23.3227766 17.8033537,23.8306303 C18.3081174,24.3384839 18.3081174,25.1588629 17.8033537,25.6661421 L15.2195122,28.2628598 C14.9674162,28.5162121 14.6370045,28.6431755 14.3060213,28.6431755 Z" id="Path"></path>
                    <path d="M14.3060213,11.7656592 C13.9756098,11.7656592 13.6446265,11.6386958 13.3925305,11.3853434 L10.8092606,8.78862562 C10.3039253,8.28134658 10.3039253,7.460393 10.8092606,6.95311396 C11.3140244,6.44526031 12.130907,6.44526031 12.6356707,6.95311396 L15.2195122,9.54925725 C15.7248476,10.0571108 15.7248476,10.8774899 15.2195122,11.3853434 C14.9674162,11.6386958 14.6370045,11.7656592 14.3060213,11.7656592 Z" id="Path"></path>
                    <path d="M14.3060213,16.9585202 C13.9756098,16.9585202 13.6446265,16.8315567 13.3925305,16.5782044 C12.8877667,16.0709254 12.8877667,15.2499718 13.3925305,14.7426927 L15.976372,12.145975 C16.4817073,11.6386958 17.2980183,11.6386958 17.8033537,12.145975 C18.3081174,12.6538285 18.3081174,13.4742076 17.8033537,13.9820611 L15.2195122,16.5782044 C14.9674162,16.8315567 14.6370045,16.9585202 14.3060213,16.9585202 Z" id="Path"></path>
                    <path d="M3.97122717,37.7311132 C3.25838415,37.7311132 2.67930644,37.1497241 2.67930644,36.4327543 L2.67930644,1.37936264 C2.67930644,0.662967246 3.25838415,0.0810037691 3.97122717,0.0810037691 C4.6846418,0.0810037691 5.2631479,0.662967246 5.2631479,1.37936264 L5.2631479,36.4327543 C5.2631479,37.1497241 4.6846418,37.7311132 3.97122717,37.7311132 Z" id="Path"></path>
                    <path d="M3.97122717,23.4503146 C3.64081551,23.4503146 3.30983239,23.3227766 3.058308,23.0699988 L0.474466537,20.473281 C-0.0308689756,19.9654274 -0.0308689756,19.1450484 0.474466537,18.6371948 C0.979230146,18.1299157 1.79611288,18.1299157 2.30087649,18.6371948 L4.88471795,21.2339125 C5.39005332,21.7417662 5.39005332,22.5621451 4.88471795,23.0699988 C4.63262195,23.3227766 4.30221044,23.4503146 3.97122717,23.4503146 Z" id="Path"></path>
                    <path d="M3.97122717,11.7656592 C3.64081551,11.7656592 3.30983239,11.6386958 3.058308,11.3853434 L0.474466537,8.78862562 C-0.0308689756,8.28134658 -0.0308689756,7.460393 0.474466537,6.95311396 C0.979230146,6.44526031 1.79611288,6.44526031 2.30087649,6.95311396 L4.88471795,9.54925725 C5.39005332,10.0571108 5.39005332,10.8774899 4.88471795,11.3853434 C4.63262195,11.6386958 4.30221044,11.7656592 3.97122717,11.7656592 Z" id="Path"></path>
                    <path d="M27.224657,38.2883735 C26.5112423,38.2883735 25.9327362,37.7064098 25.9327362,36.9900146 L25.9327362,14.3623769 C25.9327362,13.6454071 26.5112423,13.0640181 27.224657,13.0640181 C27.9375,13.0640181 28.5165777,13.6454071 28.5165777,14.3623769 L28.5165777,36.9900146 C28.5165777,37.7064098 27.9375,38.2883735 27.224657,38.2883735 L27.224657,38.2883735 Z" id="Path"></path>
                </g>
                <path d="M25.7926263,51.6847961 L25.7926263,38.7140732 C25.7926263,37.2716701 26.2793465,35.949802 27.0731707,34.869578 L27.0731707,21.851789 C27.0731707,18.2845246 24.1919457,15.3658537 20.6710151,15.3658537 C17.1495178,15.3658537 14.2682927,18.2845246 14.2682927,21.851789 L14.2682927,51.6847961 C14.2682927,55.2520606 17.1495178,58.1707317 20.6710151,58.1707317 C23.2111393,58.1707317 25.4010969,56.6399361 26.4328986,54.4542333 C26.0345699,53.6110617 25.7926263,52.6789237 25.7926263,51.6847961 L25.7926263,51.6847961 Z" id="Path" fill="#23A24D" fill-rule="nonzero"></path>
                <path d="M20.6707319,66.9512195 C19.9636306,66.9512195 19.3902439,66.3736807 19.3902439,65.6627321 L19.3902439,27.2640972 C19.3902439,26.5531485 19.9636306,25.9756098 20.6707319,25.9756098 C21.3772664,25.9756098 21.9512195,26.5531485 21.9512195,27.2640972 L21.9512195,65.6627321 C21.9512195,66.3736807 21.3772664,66.9512195 20.6707319,66.9512195 Z" id="Path" fill="#BE7C6D" fill-rule="nonzero"></path>
                <path d="M32.3783321,66.5853659 C31.6710744,66.5853659 31.097561,66.0084547 31.097561,65.2970068 L31.097561,44.0932372 C31.097561,43.3823594 31.6710744,42.804878 32.3783321,42.804878 C33.0850231,42.804878 33.6585366,43.3823594 33.6585366,44.0932372 L33.6585366,65.2970068 C33.6585366,66.0095948 33.0850231,66.5853659 32.3783321,66.5853659 L32.3783321,66.5853659 Z" id="Path" fill="#BE7C6D" fill-rule="nonzero"></path>
                <path d="M57.9378109,65.7674563 C58.3144202,65.7674563 58.6714205,65.8790741 59.0145791,66.0365854 C60.1980435,63.2336768 62.2443066,62.195122 64.5731707,62.195122 C66.902035,62.195122 68.9471446,63.2336768 70.1317625,66.0365854 C70.474921,65.8790741 70.8319213,65.7674563 71.2085305,65.7674563 C73.3015094,65.7674563 75,66.6445339 75,69.8780488 L54.1463415,69.8780488 C54.1463415,66.6445339 55.8436787,65.7674563 57.9378109,65.7674563 L57.9378109,65.7674563 Z" id="Path" fill="#61B872" fill-rule="nonzero"></path>
                <path d="M20.6207378,65.7674563 C20.997347,65.7674563 21.3543473,65.8790741 21.6975059,66.0365854 C22.8809703,63.2336768 24.9272334,62.195122 27.2560976,62.195122 C29.5849619,62.195122 31.6300714,63.2336768 32.8146894,66.0365854 C33.1578478,65.8790741 33.5148481,65.7674563 33.8914574,65.7674563 C35.9844362,65.7674563 37.6829268,66.6445339 37.6829268,69.8780488 L16.8292683,69.8780488 C16.8292683,66.6445339 18.5266055,65.7674563 20.6207378,65.7674563 L20.6207378,65.7674563 Z" id="Path" fill="#61B872" fill-rule="nonzero"></path>
                <path d="M18.6585366,66.1006099 C18.1193021,65.8728416 17.5066133,65.7674563 16.8455245,65.7674563 C16.4736976,65.7674563 16.1212307,65.8790741 15.7824297,66.0365854 C14.6128548,63.2336768 12.593715,62.195122 10.294424,62.195122 C7.99513278,62.195122 5.97599312,63.2336768 4.80641803,66.0365854 C4.4676172,65.8790741 4.1151503,65.7674563 3.74332342,65.7674563 C1.67521414,65.7674563 0,66.6445339 0,69.8780488 L16.7282253,69.8780488 C16.7282253,67.6791226 17.511738,66.5856088 18.6585366,66.1006099 L18.6585366,66.1006099 Z" id="Path" fill="#23A24D" fill-rule="nonzero"></path>
                <path d="M50.4030182,65.7674563 C50.0311913,65.7674563 49.6787244,65.8790741 49.3404928,66.0365854 C48.1720568,63.2336768 46.1517781,62.195122 43.8519177,62.195122 C41.5526265,62.195122 39.5334868,63.2336768 38.3639117,66.0365854 C38.0256803,65.8790741 37.672644,65.7674563 37.300817,65.7674563 C36.6397281,65.7674563 36.0270394,65.8728416 35.4878049,66.1006099 C36.6346034,66.5856088 37.4181162,67.6791226 37.4181162,69.8780488 L54.1463415,69.8780488 C54.1463415,66.6445339 52.4711275,65.7674563 50.4030182,65.7674563 L50.4030182,65.7674563 Z" id="Path" fill="#3D6F44" fill-rule="nonzero"></path>
            </g>
        </g>
    </g>
</svg>