<?xml version="1.0" encoding="UTF-8"?>
<svg width="50px" height="47px" viewBox="0 0 50 47" version="1.1" xmlns="http://www.w3.org/2000/svg" xmlns:xlink="http://www.w3.org/1999/xlink">
    <!-- Generator: Sketch 64 (93537) - https://sketch.com -->
    <title>forest-50</title>
    <desc>Created with Sketch.</desc>
    <g id="Graphics" stroke="none" stroke-width="1" fill="none" fill-rule="evenodd">
        <g id="Forest">
            <g id="wald">
                <path d="M26.8292683,19.0580452 C26.8292683,18.0947355 25.4284016,16.3455981 25.9644885,15.6241701 L25.9644885,4.33125196 C25.9644885,1.94923585 24.018734,0 21.6409721,0 C19.2628277,0 17.3170732,1.94923585 17.3170732,4.33125196 L17.3170732,12.1588619 C17.8531602,12.8806732 17.3170732,15.4647046 17.3170732,16.4272476 L17.3170732,25.1219512 C18.1064717,24.0589756 21.0891968,23.355564 22.5053693,23.355564 C23.9226898,23.355564 25.1750899,24.0574423 25.9644885,25.1219512 L26.8292683,19.0580452 Z" id="Path" fill="#1A9172" fill-rule="nonzero"></path>
                <path d="M21.5855547,22.4390244 C21.1140496,22.4390244 20.7317073,22.0506705 20.7317073,21.5721355 L20.7317073,7.69654092 C20.7317073,7.21762223 21.1140496,6.82926829 21.5855547,6.82926829 C22.0566821,6.82926829 22.4390244,7.21762223 22.4390244,7.69654092 L22.4390244,21.5721355 C22.4390244,22.0506705 22.0566821,22.4390244 21.5855547,22.4390244 Z" id="Path" fill="#BE7C6D" fill-rule="nonzero"></path>
                <path d="M21.5856491,22.4390244 C21.3669706,22.4390244 21.1486696,22.3555472 20.9821113,22.1889705 C20.6482393,21.8554393 20.6482393,21.3156702 20.9821113,20.982139 L22.6892396,19.2748219 C23.0227339,18.940913 23.5620655,18.940913 23.8959375,19.2748219 C24.2298094,19.6087308 24.2298094,20.1481222 23.8959375,20.4820311 L22.1888093,22.1889705 C22.0226287,22.3555472 21.80395,22.4390244 21.5856491,22.4390244 Z" id="Path" fill="#BE7C6D" fill-rule="nonzero"></path>
                <path d="M21.5856491,14.6341463 C21.3669706,14.6341463 21.1486696,14.5502938 20.9821113,14.3840993 C20.6482393,14.0501997 20.6482393,13.5108232 20.9821113,13.1769236 L22.6892396,11.4696537 C23.0227339,11.1361317 23.5620655,11.1361317 23.8959375,11.4696537 C24.2298094,11.8035534 24.2298094,12.3429298 23.8959375,12.6768295 L22.1888093,14.3840993 C22.0226287,14.5502938 21.80395,14.6341463 21.5856491,14.6341463 Z" id="Path" fill="#BE7C6D" fill-rule="nonzero"></path>
                <path d="M21.5854603,18.0487805 C21.3667817,18.0487805 21.1484808,17.9653033 20.9819225,17.7987266 L19.2747942,16.0914095 C18.9409222,15.7578783 18.9409222,15.2181092 19.2747942,14.884578 C19.6086662,14.5506691 20.1479979,14.5506691 20.4818699,14.884578 L22.1886205,16.5918951 C22.5224924,16.9254263 22.5224924,17.4648177 22.1886205,17.7987266 C22.0224398,17.9653033 21.8037612,18.0487805 21.5854603,18.0487805 Z" id="Path" fill="#BE7C6D" fill-rule="nonzero"></path>
                <path d="M8.65872549,3.41463415 C6.31106059,3.41463415 4.3902439,5.36386999 4.3902439,7.74626941 L4.3902439,19.0077544 C4.3902439,19.0372708 4.39893189,19.0648706 4.39893189,19.0951538 C4.67279472,19.0388042 4.95459,27.6706416 5.24394022,27.6706416 C7.56251893,27.6706416 9.45689375,23.5962212 9.50373373,25.9379875 C9.50637794,25.9372208 9.50977759,23.251607 9.512044,23.2508403 L12.9268293,28.5365854 L12.9268293,7.74626941 C12.9268293,5.36386999 11.0060126,3.41463415 8.65872549,3.41463415 Z" id="Path" fill="#3D6F44" fill-rule="nonzero"></path>
                <path d="M41.3412745,3.41463415 C38.9939874,3.41463415 37.0731707,5.35377292 37.0731707,7.72383147 L37.0731707,10.3970591 L37.926867,29.2675299 C37.9295112,29.2682927 37.9329108,29.2675299 37.935555,29.2682927 C37.982395,26.9390381 42.4374811,23.2357978 44.7560598,23.2357978 C45.04541,23.2357978 45.3272053,18.9578708 45.6010681,19.0139284 C45.6010681,18.9838021 45.6097561,18.9563453 45.6097561,18.9269818 L45.6097561,7.72383147 C45.6097561,5.35377292 43.6889394,3.41463415 41.3412745,3.41463415 Z" id="Path" fill="#61B872" fill-rule="nonzero"></path>
                <path d="M31.8292305,34.4488524 L31.8292305,14.5505467 C31.1130322,13.9989341 30.2310052,13.6585366 29.2681416,13.6585366 C26.9208544,13.6585366 25.0000378,15.607389 25.0000378,17.9897884 L25.0000378,23.2188005 C25.5292539,23.9402287 24.1463415,24.823039 24.1463415,25.7863486 L24.1463415,34.4488524 C24.1463415,35.1127811 25.6924383,35.7353099 25.4268859,36.2984224 C26.1147536,37.7581452 27.5747254,38.7804878 29.2681416,38.7804878 C30.6665414,38.7804878 31.9036456,38.0797595 32.6829268,37.0167839 C32.1537106,36.2949724 31.8292305,35.4121622 31.8292305,34.4488524 L31.8292305,34.4488524 Z" id="Path" fill="#3D6F44" fill-rule="nonzero"></path>
                <path d="M5.24390249,38.7804878 C2.89651144,38.7804878 0.975609756,36.8477145 0.975609756,34.485436 L0.975609756,23.3190619 C0.975609756,20.9571635 2.89651144,19.0243902 5.24390249,19.0243902 C7.59167127,19.0243902 9.51219512,20.9571635 9.51219512,23.3190619 L9.51219512,34.485436 C9.51219512,36.8477145 7.59167127,38.7804878 5.24390249,38.7804878 Z" id="Path" fill="#61B872" fill-rule="nonzero"></path>
                <path d="M5.24394966,32.6829268 C5.02563662,32.6829268 4.8069459,32.5990741 4.64037841,32.4328797 C4.30686573,32.0989801 4.30686573,31.5596036 4.64037841,31.225704 L6.34760107,29.5184341 C6.68149152,29.1849122 7.22085302,29.1849122 7.55474347,29.5184341 C7.88825624,29.8523338 7.88825624,30.3917102 7.55474347,30.7256099 L5.84752081,32.4328797 C5.68095331,32.5990741 5.46264027,32.6829268 5.24394966,32.6829268 Z" id="Path" fill="#BE7C6D" fill-rule="nonzero"></path>
                <path d="M5.24361921,36.097561 C5.02531825,36.097561 4.80663963,36.0140838 4.64008134,35.8475071 L2.93333075,34.14019 C2.59945886,33.8066588 2.59945886,33.2672674 2.93333075,32.9333585 C3.26682507,32.5994496 3.8065344,32.5994496 4.14002873,32.9333585 L5.84715699,34.6406756 C6.18102897,34.9742068 6.18102897,35.5135981 5.84715699,35.8475071 C5.6805987,36.0140838 5.46229774,36.097561 5.24361921,36.097561 Z" id="Path" fill="#BE7C6D" fill-rule="nonzero"></path>
                <path d="M13.7807711,32.6829268 C13.5620925,32.6829268 13.3437915,32.5990741 13.1772333,32.4328797 C12.8433613,32.0989801 12.8433613,31.5596036 13.1772333,31.225704 L14.8843615,29.5184341 C15.2178558,29.1849122 15.7575651,29.1849122 16.0910594,29.5184341 C16.4249314,29.8523338 16.4249314,30.3917102 16.0910594,30.7256099 L14.3843089,32.4328797 C14.2177506,32.5990741 13.999072,32.6829268 13.7807711,32.6829268 Z" id="Path" fill="#BE7C6D" fill-rule="nonzero"></path>
                <path d="M13.7804406,36.097561 C13.5617499,36.097561 13.3434369,36.0140838 13.1768694,35.8475071 L11.4696468,34.14019 C11.136134,33.8066588 11.136134,33.2672674 11.4696468,32.9333585 C11.8035372,32.5994496 12.3428987,32.5994496 12.6767891,32.9333585 L14.3840118,34.6406756 C14.7175245,34.9742068 14.7175245,35.5135981 14.3840118,35.8475071 C14.2174443,36.0140838 13.9987536,36.097561 13.7804406,36.097561 Z" id="Path" fill="#BE7C6D" fill-rule="nonzero"></path>
                <path d="M13.7807711,24.8780488 C13.5620925,24.8780488 13.3437915,24.7945716 13.1772333,24.6279948 C12.8433613,24.2940859 12.8433613,23.7546945 13.1772333,23.4207857 L14.8843615,21.7138463 C15.2178558,21.3799374 15.7575651,21.3799374 16.0910594,21.7138463 C16.4249314,22.0473774 16.4249314,22.5871466 16.0910594,22.9206777 L14.3843089,24.6279948 C14.2177506,24.7945716 13.999072,24.8780488 13.7807711,24.8780488 Z" id="Path" fill="#BE7C6D" fill-rule="nonzero"></path>
                <path d="M13.7804406,28.5365854 C13.5617499,28.5365854 13.3434369,28.4531011 13.1768694,28.2865106 L11.4696468,26.5794296 C11.136134,26.2454931 11.136134,25.7060569 11.4696468,25.3721204 C11.8035372,25.0385615 12.3428987,25.0385615 12.6767891,25.3721204 L14.3840118,27.0795791 C14.7175245,27.4131379 14.7175245,27.9529518 14.3840118,28.2865106 C14.2174443,28.4531011 13.9987536,28.5365854 13.7804406,28.5365854 Z" id="Path" fill="#BE7C6D" fill-rule="nonzero"></path>
                <path d="M21.5855547,38.7804878 C19.2378898,38.7804878 17.3170732,36.8321877 17.3170732,34.4509321 L17.3170732,25.7925871 C17.3170732,23.4113315 19.2378898,21.4634146 21.5855547,21.4634146 C23.9328419,21.4634146 25.8536585,23.4113315 25.8536585,25.7925871 L25.8536585,34.4509321 C25.8536585,36.8321877 23.9328419,38.7804878 21.5855547,38.7804878 Z" id="Path" fill="#61B872" fill-rule="nonzero"></path>
                <path d="M21.5856491,35.3658537 C21.3669706,35.3658537 21.1486696,35.2823764 20.9821113,35.1157997 C20.6482393,34.7822684 20.6482393,34.2424994 20.9821113,33.9089682 L22.6892396,32.2016512 C23.0227339,31.8677423 23.5620655,31.8677423 23.8959375,32.2016512 C24.2298094,32.5355601 24.2298094,33.0749514 23.8959375,33.4084826 L22.1888093,35.1157997 C22.0226287,35.2823764 21.80395,35.3658537 21.5856491,35.3658537 Z" id="Path" fill="#BE7C6D" fill-rule="nonzero"></path>
                <path d="M5.24390244,42.6829268 C4.77287932,42.6829268 4.3902439,42.2946504 4.3902439,41.8166835 L4.3902439,26.7199019 C4.3902439,26.2415516 4.77287932,25.8536585 5.24390244,25.8536585 C5.71530326,25.8536585 6.09756098,26.2415516 6.09756098,26.7199019 L6.09756098,41.8166835 C6.09756098,42.2946504 5.71530326,42.6829268 5.24390244,42.6829268 L5.24390244,42.6829268 Z" id="Path" fill="#BE7C6D" fill-rule="nonzero"></path>
                <path d="M44.7560975,38.7804878 C47.1034886,38.7804878 49.0243902,36.8477145 49.0243902,34.485436 L49.0243902,23.3190619 C49.0243902,20.9571635 47.1034886,19.0243902 44.7560975,19.0243902 C42.4083287,19.0243902 40.4878049,20.9571635 40.4878049,23.3190619 L40.4878049,34.485436 C40.4878049,36.8477145 42.4083287,38.7804878 44.7560975,38.7804878 L44.7560975,38.7804878 Z" id="Path" fill="#1A9172" fill-rule="nonzero"></path>
                <path d="M44.7560503,32.6829268 C44.5373597,32.6829268 44.3190467,32.5990741 44.1524792,32.4328797 L42.4452565,30.7256099 C42.1117438,30.3917102 42.1117438,29.8523338 42.4452565,29.5184341 C42.779147,29.1849122 43.3185085,29.1849122 43.6523989,29.5184341 L45.3596216,31.225704 C45.6931343,31.5596036 45.6931343,32.0989801 45.3596216,32.4328797 C45.1930541,32.5990741 44.9743634,32.6829268 44.7560503,32.6829268 Z" id="Path" fill="#BE7C6D" fill-rule="nonzero"></path>
                <path d="M44.7563808,36.097561 C44.5377023,36.097561 44.3194013,36.0140838 44.152843,35.8475071 C43.818971,35.5135981 43.818971,34.9742068 44.152843,34.6406756 L45.8599713,32.9333585 C46.1934656,32.5994496 46.7331749,32.5994496 47.0666693,32.9333585 C47.4005411,33.2672674 47.4005411,33.8066588 47.0666693,34.14019 L45.3599187,35.8475071 C45.1933604,36.0140838 44.9746817,36.097561 44.7563808,36.097561 Z" id="Path" fill="#BE7C6D" fill-rule="nonzero"></path>
                <path d="M36.2193232,38.7804878 C38.5669881,38.7804878 40.4878049,36.8347071 40.4878049,34.4565307 L40.4878049,14.5678593 C40.4878049,12.189683 38.5669881,10.2439024 36.2193232,10.2439024 C33.8720362,10.2439024 31.9512195,12.189683 31.9512195,14.5678593 L31.9512195,34.4565307 C31.9512195,36.8347071 33.8720362,38.7804878 36.2193232,38.7804878 L36.2193232,38.7804878 Z" id="Path" fill="#23A24D" fill-rule="nonzero"></path>
                <g id="Group" transform="translate(26.585366, 17.073171)" fill="#BE7C6D" fill-rule="nonzero">
                    <path d="M9.53734751,29.4819384 C9.06211893,29.4819384 8.67606712,29.0939627 8.67606712,28.6163658 L8.67606712,0.919575096 C8.67606712,0.441978164 9.06211893,0.0540025128 9.53734751,0.0540025128 C10.0129573,0.0540025128 10.3986281,0.441978164 10.3986281,0.919575096 L10.3986281,28.6163658 C10.3986281,29.0939627 10.0129573,29.4819384 9.53734751,29.4819384 Z" id="Path"></path>
                    <path d="M9.53734751,15.6335431 C9.31707317,15.6335431 9.09641766,15.5485177 8.92835366,15.3799992 L7.20617376,13.648854 C6.86928351,13.3102849 6.86928351,12.7633656 7.20617376,12.4247965 C7.54268293,12.0866105 8.08727132,12.0866105 8.42378049,12.4247965 L10.1463415,14.1559417 C10.4832317,14.4945108 10.4832317,15.0414301 10.1463415,15.3799992 C9.97827746,15.5485177 9.75800302,15.6335431 9.53734751,15.6335431 Z" id="Path"></path>
                    <path d="M9.53734751,19.0954503 C9.31707317,19.0954503 9.09641766,19.0108081 8.92835366,18.8419066 C8.59184449,18.5033375 8.59184449,17.9564181 8.92835366,17.618232 L10.6509146,15.8870868 C10.9878049,15.5485177 11.5320122,15.5485177 11.8689024,15.8870868 C12.2054116,16.2256559 12.2054116,16.7725753 11.8689024,17.1107614 L10.1463415,18.8419066 C9.97827746,19.0108081 9.75800302,19.0954503 9.53734751,19.0954503 Z" id="Path"></path>
                    <path d="M9.53734751,7.84377279 C9.31707317,7.84377279 9.09641766,7.75913054 8.92835366,7.59022891 L7.20617376,5.85908375 C6.86928351,5.52089772 6.86928351,4.97359533 7.20617376,4.63540931 C7.54268293,4.29684021 8.08727132,4.29684021 8.42378049,4.63540931 L10.1463415,6.3661715 C10.4832317,6.7047405 10.4832317,7.25165991 10.1463415,7.59022891 C9.97827746,7.75913054 9.75800302,7.84377279 9.53734751,7.84377279 Z" id="Path"></path>
                    <path d="M9.53734751,11.3056802 C9.31707317,11.3056802 9.09641766,11.2210378 8.92835366,11.0521363 C8.59184449,10.7139502 8.59184449,10.1666479 8.92835366,9.82846183 L10.6509146,8.09731667 C10.9878049,7.75913054 11.5320122,7.75913054 11.8689024,8.09731667 C12.2054116,8.43588567 12.2054116,8.98280508 11.8689024,9.32137408 L10.1463415,11.0521363 C9.97827746,11.2210378 9.75800302,11.3056802 9.53734751,11.3056802 Z" id="Path"></path>
                    <path d="M2.64748478,25.1540754 C2.1722561,25.1540754 1.78620429,24.7664828 1.78620429,24.2885029 L1.78620429,0.919575096 C1.78620429,0.441978164 2.1722561,0.0540025128 2.64748478,0.0540025128 C3.12309454,0.0540025128 3.50876527,0.441978164 3.50876527,0.919575096 L3.50876527,24.2885029 C3.50876527,24.7664828 3.12309454,25.1540754 2.64748478,25.1540754 Z" id="Path"></path>
                    <path d="M2.64748478,15.6335431 C2.42721034,15.6335431 2.20655493,15.5485177 2.038872,15.3799992 L0.316311024,13.648854 C-0.0205793171,13.3102849 -0.0205793171,12.7633656 0.316311024,12.4247965 C0.652820098,12.0866105 1.19740859,12.0866105 1.53391766,12.4247965 L3.25647863,14.1559417 C3.59336888,14.4945108 3.59336888,15.0414301 3.25647863,15.3799992 C3.08841463,15.5485177 2.86814029,15.6335431 2.64748478,15.6335431 Z" id="Path"></path>
                    <path d="M2.64748478,7.84377279 C2.42721034,7.84377279 2.20655493,7.75913054 2.038872,7.59022891 L0.316311024,5.85908375 C-0.0205793171,5.52089772 -0.0205793171,4.97359533 0.316311024,4.63540931 C0.652820098,4.29684021 1.19740859,4.29684021 1.53391766,4.63540931 L3.25647863,6.3661715 C3.59336888,6.7047405 3.59336888,7.25165991 3.25647863,7.59022891 C3.08841463,7.75913054 2.86814029,7.84377279 2.64748478,7.84377279 Z" id="Path"></path>
                    <path d="M18.1497713,25.5255823 C17.6741616,25.5255823 17.2884908,25.1376066 17.2884908,24.6600097 L17.2884908,9.57491796 C17.2884908,9.09693805 17.6741616,8.70934537 18.1497713,8.70934537 C18.625,8.70934537 19.0110518,9.09693805 19.0110518,9.57491796 L19.0110518,24.6600097 C19.0110518,25.1376066 18.625,25.5255823 18.1497713,25.5255823 L18.1497713,25.5255823 Z" id="Path"></path>
                </g>
                <path d="M17.1950842,34.4565307 L17.1950842,25.8093822 C17.1950842,24.8477801 17.5195643,23.9665347 18.0487805,23.2463853 L18.0487805,14.5678593 C18.0487805,12.189683 16.1279638,10.2439024 13.7806768,10.2439024 C11.4330119,10.2439024 9.51219512,12.189683 9.51219512,14.5678593 L9.51219512,34.4565307 C9.51219512,36.8347071 11.4330119,38.7804878 13.7806768,38.7804878 C15.4740929,38.7804878 16.9340646,37.7599574 17.6219324,36.3028222 C17.3563799,35.7407078 17.1950842,35.1192825 17.1950842,34.4565307 L17.1950842,34.4565307 Z" id="Path" fill="#23A24D" fill-rule="nonzero"></path>
                <path d="M13.7804879,44.6341463 C13.3090871,44.6341463 12.9268293,44.2491205 12.9268293,43.7751547 L12.9268293,18.1760648 C12.9268293,17.702099 13.3090871,17.3170732 13.7804879,17.3170732 C14.2515109,17.3170732 14.6341463,17.702099 14.6341463,18.1760648 L14.6341463,43.7751547 C14.6341463,44.2491205 14.2515109,44.6341463 13.7804879,44.6341463 Z" id="Path" fill="#BE7C6D" fill-rule="nonzero"></path>
                <path d="M21.5855547,44.3902439 C21.1140496,44.3902439 20.7317073,44.0056365 20.7317073,43.5313379 L20.7317073,29.3954915 C20.7317073,28.9215729 21.1140496,28.5365854 21.5855547,28.5365854 C22.0566821,28.5365854 22.4390244,28.9215729 22.4390244,29.3954915 L22.4390244,43.5313379 C22.4390244,44.0063965 22.0566821,44.3902439 21.5855547,44.3902439 L21.5855547,44.3902439 Z" id="Path" fill="#BE7C6D" fill-rule="nonzero"></path>
                <path d="M38.6252073,43.8449708 C38.8762801,43.8449708 39.1142803,43.9193827 39.3430527,44.0243902 C40.132029,42.1557846 41.4962044,41.4634146 43.0487805,41.4634146 C44.6013567,41.4634146 45.964763,42.1557846 46.7545084,44.0243902 C46.9832807,43.9193827 47.2212808,43.8449708 47.4723537,43.8449708 C48.8676729,43.8449708 50,44.4296893 50,46.5853659 L36.097561,46.5853659 C36.097561,44.4296893 37.2291191,43.8449708 38.6252073,43.8449708 L38.6252073,43.8449708 Z" id="Path" fill="#61B872" fill-rule="nonzero"></path>
                <path d="M13.7471585,43.8449708 C13.9982314,43.8449708 14.2362315,43.9193827 14.4650039,44.0243902 C15.2539802,42.1557846 16.6181556,41.4634146 18.1707317,41.4634146 C19.7233079,41.4634146 21.0867143,42.1557846 21.8764596,44.0243902 C22.1052319,43.9193827 22.3432321,43.8449708 22.5943049,43.8449708 C23.9896242,43.8449708 25.1219512,44.4296893 25.1219512,46.5853659 L11.2195122,46.5853659 C11.2195122,44.4296893 12.3510703,43.8449708 13.7471585,43.8449708 L13.7471585,43.8449708 Z" id="Path" fill="#61B872" fill-rule="nonzero"></path>
                <path d="M12.4390244,44.0670732 C12.0795347,43.9152277 11.6710756,43.8449708 11.2303497,43.8449708 C10.9824651,43.8449708 10.7474871,43.9193827 10.5216198,44.0243902 C9.74190319,42.1557846 8.39580999,41.4634146 6.8629493,41.4634146 C5.33008852,41.4634146 3.98399542,42.1557846 3.20427869,44.0243902 C2.97841147,43.9193827 2.74343353,43.8449708 2.49554895,43.8449708 C1.11680943,43.8449708 0,44.4296893 0,46.5853659 L11.1521502,46.5853659 C11.1521502,45.1194151 11.674492,44.3904059 12.4390244,44.0670732 L12.4390244,44.0670732 Z" id="Path" fill="#23A24D" fill-rule="nonzero"></path>
                <path d="M33.6020121,43.8449708 C33.3541275,43.8449708 33.1191496,43.9193827 32.8936619,44.0243902 C32.1147045,42.1557846 30.767852,41.4634146 29.2346118,41.4634146 C27.701751,41.4634146 26.3556579,42.1557846 25.5759412,44.0243902 C25.3504535,43.9193827 25.115096,43.8449708 24.8672113,43.8449708 C24.4264854,43.8449708 24.0180262,43.9152277 23.6585366,44.0670732 C24.423069,44.3904059 24.9454108,45.1194151 24.9454108,46.5853659 L36.097561,46.5853659 C36.097561,44.4296893 34.9807516,43.8449708 33.6020121,43.8449708 L33.6020121,43.8449708 Z" id="Path" fill="#3D6F44" fill-rule="nonzero"></path>
            </g>
        </g>
    </g>
</svg>