<?xml version="1.0" encoding="UTF-8"?>
<svg width="16px" height="55px" viewBox="0 0 16 55" version="1.1" xmlns="http://www.w3.org/2000/svg" xmlns:xlink="http://www.w3.org/1999/xlink">
    <!-- Generator: Sketch 64 (93537) - https://sketch.com -->
    <title>logo-tree-16</title>
    <desc>Created with Sketch.</desc>
    <g id="Graphics" stroke="none" stroke-width="1" fill="none" fill-rule="evenodd">
        <g id="Logo-tree" fill="#5E5E5E" fill-rule="nonzero">
            <path d="M4.65116279,51.2744103 C5.04348346,51.2744103 5.36489865,51.5817615 5.39330763,51.971606 L5.39534884,52.0278349 L5.39534884,54.1142417 C5.39534884,54.5303466 5.0621654,54.8676663 4.65116279,54.8676663 C4.25884212,54.8676663 3.93742693,54.5603151 3.90901795,54.1704706 L3.90697674,54.1142417 L3.90697674,52.0278349 C3.90697674,51.61173 4.24016019,51.2744103 4.65116279,51.2744103 Z" id="Line-9"></path>
            <path d="M11.3488372,51.2744103 C11.7411579,51.2744103 12.0625731,51.5817615 12.0909821,51.971606 L12.0930233,52.0278349 L12.0930233,54.1142417 C12.0930233,54.5303466 11.7598398,54.8676663 11.3488372,54.8676663 C10.9565165,54.8676663 10.6351014,54.5603151 10.6066924,54.1704706 L10.6046512,54.1142417 L10.6046512,52.0278349 C10.6046512,51.61173 10.9378346,51.2744103 11.3488372,51.2744103 Z" id="Line-9-Copy"></path>
            <path d="M8,0.331312281 C12.4392131,0.331312281 15.9295843,3.64458256 15.9989478,8.77708329 L16,8.93316893 L16,39.6655122 C16,43.372989 13.9531972,46.0853973 10.7853002,47.1439948 C10.395008,47.2744164 9.97418261,47.0598219 9.84536024,46.6646845 C9.71653788,46.2695472 9.928501,45.8434974 10.3187931,45.7130758 C12.8483745,44.8677806 14.4573508,42.7773582 14.5102807,39.8167972 L14.5116279,39.6655122 L14.5116279,8.93316893 C14.5116279,4.5619545 11.678737,1.8381616 8,1.8381616 C4.36213782,1.8381616 1.55142965,4.50176204 1.48941859,8.78807341 L1.48837209,8.93316893 L1.48837209,39.6655122 C1.48837209,42.7749266 3.18630951,44.9522137 5.85136234,45.7675188 C6.24479533,45.8878796 6.4673605,46.3083513 6.34847558,46.7066685 C6.22959065,47.1049857 5.81427492,47.3303139 5.42084194,47.2099531 C2.19022852,46.2216291 0.0606212275,43.5352334 0.00127315727,39.8251409 L0,39.6655122 L0,8.93316893 C0,3.71185537 3.51594633,0.331312281 8,0.331312281 Z" id="Path"></path>
            <path d="M8,11.0106417 C8.39232067,11.0106417 8.71373586,11.3179929 8.74214484,11.7078374 L8.74418605,11.7640664 L8.74418605,54.0697911 C8.74418605,54.485896 8.4110026,54.8232157 8,54.8232157 C7.60767933,54.8232157 7.28626414,54.5158645 7.25785516,54.12602 L7.25581395,54.0697911 L7.25581395,11.7640664 C7.25581395,11.3479614 7.5889974,11.0106417 8,11.0106417 Z" id="Line-6"></path>
            <path d="M4.03397744,15.4172353 C4.29044979,15.1206279 4.72591695,15.0766388 5.03398806,15.3058733 L5.08410111,15.3466125 L8.17533546,18.0863385 C8.48458193,18.3604202 8.51581314,18.8364132 8.24509233,19.1494988 C7.98861997,19.4461062 7.55315282,19.4900953 7.24508171,19.2608608 L7.19496866,19.2201217 L4.10373431,16.4803956 C3.79448784,16.206314 3.76325662,15.7303209 4.03397744,15.4172353 Z" id="Line-8"></path>
            <path d="M4.03397744,27.8487422 C4.29044979,27.5521348 4.72591695,27.5081457 5.03398806,27.7373802 L5.08410111,27.7781193 L8.17533546,30.5178454 C8.48458193,30.791927 8.51581314,31.2679201 8.24509233,31.5810057 C7.98861997,31.8776131 7.55315282,31.9216022 7.24508171,31.6923677 L7.19496866,31.6516285 L4.10373431,28.9119025 C3.79448784,28.6378208 3.76325662,28.1618278 4.03397744,27.8487422 Z" id="Line-8-Copy"></path>
            <path d="M7.75490767,21.8213449 C8.01138003,21.5247375 8.44684718,21.4807484 8.75491829,21.7099829 L8.80503134,21.7507221 L11.8962657,24.4904481 C12.2055122,24.7645297 12.2367434,25.2405228 11.9660226,25.5536084 C11.7095502,25.8502158 11.2740831,25.8942049 10.9660119,25.6649704 L10.9158989,25.6242313 L7.82466454,22.8845052 C7.51541807,22.6104236 7.48418686,22.1344305 7.75490767,21.8213449 Z" id="Line-8-Copy-2" transform="translate(9.860465, 23.687477) scale(-1, 1) translate(-9.860465, -23.687477) "></path>
            <path d="M7.75490767,34.6295641 C8.01138003,34.3329567 8.44684718,34.2889676 8.75491829,34.5182021 L8.80503134,34.5589412 L11.8962657,37.2986673 C12.2055122,37.5727489 12.2367434,38.048742 11.9660226,38.3618276 C11.7095502,38.658435 11.2740831,38.7024241 10.9660119,38.4731896 L10.9158989,38.4324504 L7.82466454,35.6927244 C7.51541807,35.4186428 7.48418686,34.9426497 7.75490767,34.6295641 Z" id="Line-8-Copy-3" transform="translate(9.860465, 36.495696) scale(-1, 1) translate(-9.860465, -36.495696) "></path>
        </g>
    </g>
</svg>