<?xml version="1.0" encoding="UTF-8"?>
<svg width="32px" height="110px" viewBox="0 0 32 110" version="1.1" xmlns="http://www.w3.org/2000/svg" xmlns:xlink="http://www.w3.org/1999/xlink">
    <!-- Generator: Sketch 64 (93537) - https://sketch.com -->
    <title>logo-tree-32</title>
    <desc>Created with Sketch.</desc>
    <g id="Graphics" stroke="none" stroke-width="1" fill="none" fill-rule="evenodd">
        <g id="Logo-tree" fill="#5E5E5E" fill-rule="nonzero">
            <path d="M9.30232558,102.548821 C10.0869669,102.548821 10.7297973,103.163523 10.7866153,103.943212 L10.7906977,104.05567 L10.7906977,108.228483 C10.7906977,109.060693 10.1243308,109.735333 9.30232558,109.735333 C8.51768425,109.735333 7.87485386,109.12063 7.8180359,108.340941 L7.81395349,108.228483 L7.81395349,104.05567 C7.81395349,103.22346 8.48032037,102.548821 9.30232558,102.548821 Z" id="Line-9"></path>
            <path d="M22.6976744,102.548821 C23.4823158,102.548821 24.1251461,103.163523 24.1819641,103.943212 L24.1860465,104.05567 L24.1860465,108.228483 C24.1860465,109.060693 23.5196796,109.735333 22.6976744,109.735333 C21.9130331,109.735333 21.2702027,109.12063 21.2133847,108.340941 L21.2093023,108.228483 L21.2093023,104.05567 C21.2093023,103.22346 21.8756692,102.548821 22.6976744,102.548821 Z" id="Line-9-Copy"></path>
            <path d="M16,0.662624562 C24.8784263,0.662624562 31.8591685,7.28916513 31.9978955,17.5541666 L32,17.8663379 L32,79.3310243 C32,86.745978 27.9063943,92.1707947 21.5706003,94.2879895 C20.7900161,94.5488328 19.9483652,94.1196438 19.6907205,93.329369 C19.4330758,92.5390943 19.857002,91.6869949 20.6375862,91.4261516 C25.6967489,89.7355611 28.9147016,85.5547164 29.0205614,79.6335945 L29.0232558,79.3310243 L29.0232558,17.8663379 C29.0232558,9.123909 23.3574741,3.67632319 16,3.67632319 C8.72427565,3.67632319 3.1028593,9.00352408 2.97883717,17.5761468 L2.97674419,17.8663379 L2.97674419,79.3310243 C2.97674419,85.5498533 6.37261902,89.9044275 11.7027247,91.5350377 C12.4895907,91.7757593 12.934721,92.6167025 12.6969512,93.4133369 C12.4591813,94.2099714 11.6285498,94.6606277 10.8416839,94.4199061 C4.38045704,92.4432582 0.121242455,87.0704668 0.00254631453,79.6502818 L0,79.3310243 L0,17.8663379 C0,7.42371074 7.03189267,0.662624562 16,0.662624562 Z" id="Path"></path>
            <path d="M16,22.0212834 C16.7846413,22.0212834 17.4274717,22.6359859 17.4842897,23.4156748 L17.4883721,23.5281328 L17.4883721,108.139582 C17.4883721,108.971792 16.8220052,109.646431 16,109.646431 C15.2153587,109.646431 14.5725283,109.031729 14.5157103,108.25204 L14.5116279,108.139582 L14.5116279,23.5281328 C14.5116279,22.6959229 15.1779948,22.0212834 16,22.0212834 Z" id="Line-6"></path>
            <path d="M8.06795488,30.8344707 C8.58089959,30.2412559 9.45183389,30.1532776 10.0679761,30.6117467 L10.1682022,30.693225 L16.3506709,36.172677 C16.9691639,36.7208403 17.0316263,37.6728265 16.4901847,38.2989976 C15.9772399,38.8922124 15.1063056,38.9801907 14.4901634,38.5217216 L14.3899373,38.4402433 L8.20746862,32.9607913 C7.58897568,32.412628 7.52651325,31.4606418 8.06795488,30.8344707 Z" id="Line-8"></path>
            <path d="M8.06795488,55.6974844 C8.58089959,55.1042696 9.45183389,55.0162913 10.0679761,55.4747604 L10.1682022,55.5562387 L16.3506709,61.0356907 C16.9691639,61.583854 17.0316263,62.5358402 16.4901847,63.1620113 C15.9772399,63.7552261 15.1063056,63.8432044 14.4901634,63.3847353 L14.3899373,63.303257 L8.20746862,57.823805 C7.58897568,57.2756417 7.52651325,56.3236555 8.06795488,55.6974844 Z" id="Line-8-Copy"></path>
            <path d="M15.5098153,43.6426899 C16.0227601,43.0494751 16.8936944,42.9614968 17.5098366,43.4199659 L17.6100627,43.5014441 L23.7925314,48.9808962 C24.4110243,49.5290595 24.4734868,50.4810457 23.9320451,51.1072168 C23.4191004,51.7004316 22.5481661,51.7884098 21.9320239,51.3299408 L21.8317978,51.2484625 L15.6493291,45.7690105 C15.0308361,45.2208472 14.9683737,44.268861 15.5098153,43.6426899 Z" id="Line-8-Copy-2" transform="translate(19.720930, 47.374953) scale(-1, 1) translate(-19.720930, -47.374953) "></path>
            <path d="M15.5098153,69.2591282 C16.0227601,68.6659134 16.8936944,68.5779352 17.5098366,69.0364042 L17.6100627,69.1178825 L23.7925314,74.5973345 C24.4110243,75.1454978 24.4734868,76.097484 23.9320451,76.7236552 C23.4191004,77.3168699 22.5481661,77.4048482 21.9320239,76.9463791 L21.8317978,76.8649009 L15.6493291,71.3854488 C15.0308361,70.8372855 14.9683737,69.8852994 15.5098153,69.2591282 Z" id="Line-8-Copy-3" transform="translate(19.720930, 72.991392) scale(-1, 1) translate(-19.720930, -72.991392) "></path>
        </g>
    </g>
</svg>