<?xml version="1.0" encoding="UTF-8"?>
<svg width="24px" height="83px" viewBox="0 0 24 83" version="1.1" xmlns="http://www.w3.org/2000/svg" xmlns:xlink="http://www.w3.org/1999/xlink">
    <!-- Generator: Sketch 64 (93537) - https://sketch.com -->
    <title>logo-tree-24</title>
    <desc>Created with Sketch.</desc>
    <g id="Graphics" stroke="none" stroke-width="1" fill="none" fill-rule="evenodd">
        <g id="Logo-tree" fill="#5E5E5E" fill-rule="nonzero">
            <path d="M6.97674419,76.9116154 C7.56522519,76.9116154 8.04734797,77.3726423 8.08996145,77.957409 L8.09302326,78.0417524 L8.09302326,81.1713625 C8.09302326,81.7955199 7.59324809,82.3014995 6.97674419,82.3014995 C6.38826318,82.3014995 5.9061404,81.8404727 5.86352692,81.255706 L5.86046512,81.1713625 L5.86046512,78.0417524 C5.86046512,77.417595 6.36024028,76.9116154 6.97674419,76.9116154 Z" id="Line-9"></path>
            <path d="M17.0232558,76.9116154 C17.6117368,76.9116154 18.0938596,77.3726423 18.1364731,77.957409 L18.1395349,78.0417524 L18.1395349,81.1713625 C18.1395349,81.7955199 17.6397597,82.3014995 17.0232558,82.3014995 C16.4347748,82.3014995 15.952652,81.8404727 15.9100386,81.255706 L15.9069767,81.1713625 L15.9069767,78.0417524 C15.9069767,77.417595 16.4067519,76.9116154 17.0232558,76.9116154 Z" id="Line-9-Copy"></path>
            <path d="M12,0.496968422 C18.6588197,0.496968422 23.8943764,5.46687384 23.9984216,13.1656249 L24,13.3997534 L24,59.4982682 C24,65.0594835 20.9297957,69.128096 16.1779502,70.7159922 C15.5925121,70.9116246 14.9612739,70.5897328 14.7680404,69.9970268 C14.5748068,69.4043207 14.8927515,68.7652462 15.4781897,68.5696137 C19.2725617,67.3016708 21.6860262,64.1660373 21.765421,59.7251959 L21.7674419,59.4982682 L21.7674419,13.3997534 C21.7674419,6.84293175 17.5181055,2.75724239 12,2.75724239 C6.54320674,2.75724239 2.32714447,6.75264306 2.23412788,13.1821101 L2.23255814,13.3997534 L2.23255814,59.4982682 C2.23255814,64.16239 4.77946426,67.4283206 8.77704351,68.6512782 C9.36719299,68.8318195 9.70104076,69.4625269 9.52271337,70.0600027 C9.34438598,70.6574785 8.72141238,70.9954708 8.1312629,70.8149296 C3.28534278,69.3324437 0.0909318412,65.3028501 0.0019097359,59.7377114 L0,59.4982682 L0,13.3997534 C0,5.56778306 5.2739195,0.496968422 12,0.496968422 Z" id="Path"></path>
            <path d="M12,16.5159626 C12.588481,16.5159626 13.0706038,16.9769894 13.1132173,17.5617561 L13.1162791,17.6460996 L13.1162791,81.1046866 C13.1162791,81.728844 12.6165039,82.2348236 12,82.2348236 C11.411519,82.2348236 10.9293962,81.7737967 10.8867827,81.18903 L10.8837209,81.1046866 L10.8837209,17.6460996 C10.8837209,17.0219422 11.3834961,16.5159626 12,16.5159626 Z" id="Line-6"></path>
            <path d="M6.05096616,23.125853 C6.43567469,22.6809419 7.08887542,22.6149582 7.55098208,22.95881 L7.62615167,23.0199187 L12.2630032,27.1295078 C12.7268729,27.5406302 12.7737197,28.2546199 12.3676385,28.7242482 C11.98293,29.1691593 11.3297292,29.235143 10.8676226,28.8912912 L10.792453,28.8301825 L6.15560146,24.7205935 C5.69173176,24.309471 5.64488494,23.5954814 6.05096616,23.125853 Z" id="Line-8"></path>
            <path d="M6.05096616,41.7731133 C6.43567469,41.3282022 7.08887542,41.2622185 7.55098208,41.6060703 L7.62615167,41.667179 L12.2630032,45.776768 C12.7268729,46.1878905 12.7737197,46.9018801 12.3676385,47.3715085 C11.98293,47.8164196 11.3297292,47.8824033 10.8676226,47.5385515 L10.792453,47.4774428 L6.15560146,43.3678537 C5.69173176,42.9567313 5.64488494,42.2427416 6.05096616,41.7731133 Z" id="Line-8-Copy"></path>
            <path d="M11.6323615,32.7320174 C12.01707,32.2871063 12.6702708,32.2211226 13.1323774,32.5649744 L13.207547,32.6260831 L17.8443985,36.7356721 C18.3082682,37.1467946 18.3551151,37.8607842 17.9490338,38.3304126 C17.5643253,38.7753237 16.9111246,38.8413074 16.4490179,38.4974556 L16.3738483,38.4363469 L11.7369968,34.3267579 C11.2731271,33.9156354 11.2262803,33.2016458 11.6323615,32.7320174 Z" id="Line-8-Copy-2" transform="translate(14.790698, 35.531215) scale(-1, 1) translate(-14.790698, -35.531215) "></path>
            <path d="M11.6323615,51.9443462 C12.01707,51.4994351 12.6702708,51.4334514 13.1323774,51.7773032 L13.207547,51.8384119 L17.8443985,55.9480009 C18.3082682,56.3591234 18.3551151,57.073113 17.9490338,57.5427414 C17.5643253,57.9876525 16.9111246,58.0536361 16.4490179,57.7097844 L16.3738483,57.6486757 L11.7369968,53.5390866 C11.2731271,53.1279641 11.2262803,52.4139745 11.6323615,51.9443462 Z" id="Line-8-Copy-3" transform="translate(14.790698, 54.743544) scale(-1, 1) translate(-14.790698, -54.743544) "></path>
        </g>
    </g>
</svg>