<?xml version="1.0" encoding="UTF-8"?>
<svg width="20px" height="54px" viewBox="0 0 20 54" version="1.1" xmlns="http://www.w3.org/2000/svg" xmlns:xlink="http://www.w3.org/1999/xlink">
    <!-- Generator: Sketch 64 (93537) - https://sketch.com -->
    <title>tree1-20</title>
    <desc>Created with Sketch.</desc>
    <g id="Graphics" stroke="none" stroke-width="1" fill="none" fill-rule="evenodd">
        <g id="Tree-1">
            <path d="M15.7894737,36.5628306 L15.7894737,6.21638994 C15.7894737,2.7973755 13.0261934,0 9.64885098,0 C6.27205205,0 3.50877193,2.7973755 3.50877193,6.21638994 L3.50877193,36.5628306 C3.50877193,39.9818451 6.27205205,42.7792208 9.64885098,42.7792208 C13.0261934,42.7792208 15.7894737,39.9818451 15.7894737,36.5628306 Z" id="Path" fill="#61B872" fill-rule="nonzero"></path>
            <g id="Group" stroke-width="1" fill-rule="evenodd" transform="translate(5.964912, 7.714286)" fill="#BE7C6D">
                <path d="M3.71710523,46.1645779 C3.03344305,46.1645779 2.47807028,45.6067999 2.47807028,44.9201768 L2.47807028,1.2444011 C2.47807028,0.557777981 3.03344305,-4.98302698e-15 3.71710523,-4.98302698e-15 C4.40131575,-4.98302698e-15 4.95614046,0.557777981 4.95614046,1.2444011 L4.95614046,44.9201768 C4.95614046,45.6067999 4.40131575,46.1645779 3.71710523,46.1645779 Z" id="Path" fill-rule="nonzero"></path>
                <path d="M3.71710523,20.6448719 C3.40021933,20.6448719 3.08278509,20.5226342 2.84100881,20.2803615 L0.363486842,17.7915593 C-0.121162281,17.3048112 -0.121162281,16.5185259 0.363486842,16.0317779 C0.847587754,15.5455806 1.6310307,15.5455806 2.11513161,16.0317779 L4.59320179,18.5205801 C5.07785091,19.0073281 5.07785091,19.7936134 4.59320179,20.2803615 C4.35142551,20.5226342 4.03453947,20.6448719 3.71710523,20.6448719 Z" id="Path" fill-rule="nonzero"></path>
                <path d="M3.71710523,27.7258217 C3.40021933,27.7258217 3.08278509,27.6041348 2.84100881,27.3613114 C2.35690789,26.8745633 2.35690789,26.088278 2.84100881,25.6020806 L5.31907898,23.1132784 C5.80372811,22.6265303 6.58662284,22.6265303 7.07127196,23.1132784 C7.55537288,23.6000264 7.55537288,24.3863117 7.07127196,24.8725092 L4.59320179,27.3613114 C4.35142551,27.6041348 4.03453947,27.7258217 3.71710523,27.7258217 Z" id="Path" fill-rule="nonzero"></path>
                <path d="M3.71710523,13.020269 C3.40021933,13.020269 3.08278509,12.8985819 2.84100881,12.6557585 C2.35690789,12.1695612 2.35690789,11.3827252 2.84100881,10.8965279 L5.31907898,8.40772567 C5.80372811,7.92152822 6.58662284,7.92152822 7.07127196,8.40772567 C7.55537288,8.89447357 7.55537288,9.68075901 7.07127196,10.1675069 L4.59320179,12.6557585 C4.35142551,12.8985819 4.03453947,13.020269 3.71710523,13.020269 Z" id="Path" fill-rule="nonzero"></path>
            </g>
            <path d="M4.66895302,50.3181818 C5.80397154,47.6317578 7.76646946,46.6363636 10,46.6363636 C12.2335307,46.6363636 14.1949223,47.6317578 15.3310471,50.3181818 C15.6601581,50.1672165 16.0025444,50.0602373 16.3637369,50.0602373 C18.3710383,50.0602373 20,50.9008649 20,54 L0,54 C0,50.9008649 1.62785555,50.0602373 3.63626313,50.0602373 C3.99745563,50.0602373 4.33984186,50.1672165 4.66895302,50.3181818 Z" id="Path" fill="#1A9172" fill-rule="nonzero"></path>
        </g>
    </g>
</svg>