<?xml version="1.0" encoding="UTF-8"?>
<svg width="40px" height="108px" viewBox="0 0 40 108" version="1.1" xmlns="http://www.w3.org/2000/svg" xmlns:xlink="http://www.w3.org/1999/xlink">
    <!-- Generator: Sketch 64 (93537) - https://sketch.com -->
    <title>tree1-40</title>
    <desc>Created with Sketch.</desc>
    <g id="Graphics" stroke="none" stroke-width="1" fill="none" fill-rule="evenodd">
        <g id="Tree-1">
            <path d="M31.5789474,73.1256611 L31.5789474,12.4327799 C31.5789474,5.594751 26.0523868,0 19.297702,0 C12.5441041,0 7.01754386,5.594751 7.01754386,12.4327799 L7.01754386,73.1256611 C7.01754386,79.9636903 12.5441041,85.5584416 19.297702,85.5584416 C26.0523868,85.5584416 31.5789474,79.9636903 31.5789474,73.1256611 Z" id="Path" fill="#61B872" fill-rule="nonzero"></path>
            <g id="Group" stroke-width="1" fill-rule="evenodd" transform="translate(11.929825, 15.428571)" fill="#BE7C6D">
                <path d="M7.43421046,92.3291558 C6.06688611,92.3291558 4.95614056,91.2135998 4.95614056,89.8403536 L4.95614056,2.48880221 C4.95614056,1.11555596 6.06688611,-9.96605396e-15 7.43421046,-9.96605396e-15 C8.80263151,-9.96605396e-15 9.91228091,1.11555596 9.91228091,2.48880221 L9.91228091,89.8403536 C9.91228091,91.2135998 8.80263151,92.3291558 7.43421046,92.3291558 Z" id="Path" fill-rule="nonzero"></path>
                <path d="M7.43421046,41.2897439 C6.80043867,41.2897439 6.16557018,41.0452685 5.68201761,40.5607229 L0.726973684,35.5831185 C-0.242324561,34.6096224 -0.242324561,33.0370518 0.726973684,32.0635557 C1.69517551,31.0911611 3.2620614,31.0911611 4.23026323,32.0635557 L9.18640358,37.0411601 C10.1557018,38.0146562 10.1557018,39.5872268 9.18640358,40.5607229 C8.70285102,41.0452685 8.06907895,41.2897439 7.43421046,41.2897439 Z" id="Path" fill-rule="nonzero"></path>
                <path d="M7.43421046,55.4516435 C6.80043867,55.4516435 6.16557018,55.2082695 5.68201761,54.7226228 C4.71381579,53.7491267 4.71381579,52.1765561 5.68201761,51.2041612 L10.638158,46.2265568 C11.6074562,45.2530607 13.1732457,45.2530607 14.1425439,46.2265568 C15.1107458,47.2000529 15.1107458,48.7726235 14.1425439,49.7450184 L9.18640358,54.7226228 C8.70285102,55.2082695 8.06907895,55.4516435 7.43421046,55.4516435 Z" id="Path" fill-rule="nonzero"></path>
                <path d="M7.43421046,26.040538 C6.80043867,26.040538 6.16557018,25.7971638 5.68201761,25.3115171 C4.71381579,24.3391224 4.71381579,22.7654504 5.68201761,21.7930558 L10.638158,16.8154513 C11.6074562,15.8430564 13.1732457,15.8430564 14.1425439,16.8154513 C15.1107458,17.7889471 15.1107458,19.361518 14.1425439,20.3350138 L9.18640358,25.3115171 C8.70285102,25.7971638 8.06907895,26.040538 7.43421046,26.040538 Z" id="Path" fill-rule="nonzero"></path>
            </g>
            <path d="M9.33790604,100.636364 C11.6079431,95.2635156 15.5329389,93.2727273 20,93.2727273 C24.4670614,93.2727273 28.3898445,95.2635156 30.6620942,100.636364 C31.3203163,100.334433 32.0050887,100.120475 32.7274737,100.120475 C36.7420765,100.120475 40,101.80173 40,108 L0,108 C0,101.80173 3.25571111,100.120475 7.27252625,100.120475 C7.99491127,100.120475 8.67968372,100.334433 9.33790604,100.636364 Z" id="Path" fill="#1A9172" fill-rule="nonzero"></path>
        </g>
    </g>
</svg>