<?xml version="1.0" encoding="UTF-8"?>
<svg width="30px" height="81px" viewBox="0 0 30 81" version="1.1" xmlns="http://www.w3.org/2000/svg" xmlns:xlink="http://www.w3.org/1999/xlink">
    <!-- Generator: Sketch 64 (93537) - https://sketch.com -->
    <title>tree1-30</title>
    <desc>Created with Sketch.</desc>
    <g id="Graphics" stroke="none" stroke-width="1" fill="none" fill-rule="evenodd">
        <g id="Tree-1">
            <path d="M23.6842105,54.8442458 L23.6842105,9.32458491 C23.6842105,4.19606325 19.5392901,0 14.4732765,0 C9.40807808,0 5.26315789,4.19606325 5.26315789,9.32458491 L5.26315789,54.8442458 C5.26315789,59.9727677 9.40807808,64.1688312 14.4732765,64.1688312 C19.5392901,64.1688312 23.6842105,59.9727677 23.6842105,54.8442458 Z" id="Path" fill="#61B872" fill-rule="nonzero"></path>
            <g id="Group" stroke-width="1" fill-rule="evenodd" transform="translate(8.947368, 11.571429)" fill="#BE7C6D">
                <path d="M5.57565784,69.2468668 C4.55016458,69.2468668 3.71710542,68.4101999 3.71710542,67.3802652 L3.71710542,1.86660166 C3.71710542,0.836666972 4.55016458,-7.47454047e-15 5.57565784,-7.47454047e-15 C6.60197363,-7.47454047e-15 7.43421068,0.836666972 7.43421068,1.86660166 L7.43421068,67.3802652 C7.43421068,68.4101999 6.60197363,69.2468668 5.57565784,69.2468668 Z" id="Path" fill-rule="nonzero"></path>
                <path d="M5.57565784,30.9673079 C5.100329,30.9673079 4.62417763,30.7839514 4.26151321,30.4205422 L0.545230263,26.6873389 C-0.181743421,25.9572168 -0.181743421,24.7777889 0.545230263,24.0476668 C1.27138163,23.3183708 2.44654605,23.3183708 3.17269742,24.0476668 L6.88980268,27.7808701 C7.61677637,28.5109922 7.61677637,29.6904201 6.88980268,30.4205422 C6.52713826,30.7839514 6.05180921,30.9673079 5.57565784,30.9673079 Z" id="Path" fill-rule="nonzero"></path>
                <path d="M5.57565784,41.5887326 C5.100329,41.5887326 4.62417763,41.4062021 4.26151321,41.0419671 C3.53536184,40.311845 3.53536184,39.1324171 4.26151321,38.4031209 L7.97861847,34.6699176 C8.70559216,33.9397955 9.87993426,33.9397955 10.6069079,34.6699176 C11.3330593,35.4000396 11.3330593,36.5794676 10.6069079,37.3087638 L6.88980268,41.0419671 C6.52713826,41.4062021 6.05180921,41.5887326 5.57565784,41.5887326 Z" id="Path" fill-rule="nonzero"></path>
                <path d="M5.57565784,19.5304035 C5.100329,19.5304035 4.62417763,19.3478729 4.26151321,18.9836378 C3.53536184,18.2543418 3.53536184,17.0740878 4.26151321,16.3447918 L7.97861847,12.6115885 C8.70559216,11.8822923 9.87993426,11.8822923 10.6069079,12.6115885 C11.3330593,13.3417104 11.3330593,14.5211385 10.6069079,15.2512604 L6.88980268,18.9836378 C6.52713826,19.3478729 6.05180921,19.5304035 5.57565784,19.5304035 Z" id="Path" fill-rule="nonzero"></path>
            </g>
            <path d="M7.00342953,75.4772727 C8.70595732,71.4476367 11.6497042,69.9545455 15,69.9545455 C18.350296,69.9545455 21.2923834,71.4476367 22.9965707,75.4772727 C23.4902372,75.2508247 24.0038166,75.0903559 24.5456053,75.0903559 C27.5565574,75.0903559 30,76.3512974 30,81 L0,81 C0,76.3512974 2.44178333,75.0903559 5.45439469,75.0903559 C5.99618345,75.0903559 6.50976279,75.2508247 7.00342953,75.4772727 Z" id="Path" fill="#1A9172" fill-rule="nonzero"></path>
        </g>
    </g>
</svg>